<svg xmlns="http://www.w3.org/2000/svg" width="54" height="54" viewBox="0 0 54 54">
  <g id="组_587" data-name="组 587" transform="translate(-340.5 -713.5)">
    <rect id="矩形_572" data-name="矩形 572" width="54" height="54" transform="translate(340.5 713.5)" fill="none"/>
    <g id="用户" transform="translate(345.5 713)">
      <rect id="矩形" width="45" height="45" transform="translate(0 5)" fill="#1b8ff4" opacity="0.01"/>
      <path id="形状" d="M22.494,44.942h0A22.537,22.537,0,0,1,5.9,37.641l-.889-.955L5.9,35.73a22.5,22.5,0,0,1,33.18,0l.889.956-.887.955a22.537,22.537,0,0,1-16.591,7.3Zm0-13.669A19.642,19.642,0,0,0,8.933,36.687a19.689,19.689,0,0,0,27.119,0A19.645,19.645,0,0,0,22.493,31.272ZM3.1,33.821h0A22.231,22.231,0,0,1,0,22.47a22.492,22.492,0,0,1,44.985,0,22.283,22.283,0,0,1-3.074,11.349,23.69,23.69,0,0,0-2.053-2.182,19.638,19.638,0,1,0-34.731.023A22.712,22.712,0,0,0,3.1,33.82Zm19.424-7.44h-.006a7.2,7.2,0,1,1,.006,0Zm-.007-11.53a4.346,4.346,0,1,0,3.076,1.27,4.318,4.318,0,0,0-3.069-1.27Z" transform="translate(0.004 5.03)" fill="#1b8ff4"/>
    </g>
  </g>
</svg>
