<svg xmlns="http://www.w3.org/2000/svg" width="54" height="54" viewBox="0 0 54 54">
  <g id="组_586" data-name="组 586" transform="translate(-151.5 -712.5)">
    <rect id="矩形_570" data-name="矩形 570" width="54" height="54" transform="translate(151.5 712.5)" fill="none"/>
    <g id="时间" transform="translate(152.5 712.5)">
      <rect id="矩形" width="53" height="53" fill="#1b8ff4" opacity="0.01"/>
      <path id="形状" d="M23.461,46.922A23.461,23.461,0,0,1,23.461,0,23.463,23.463,0,0,1,40.047,40.057,23.312,23.312,0,0,1,23.461,46.922Zm0-43.672a20.21,20.21,0,1,0,20.21,20.21A20.248,20.248,0,0,0,23.461,3.251Z" transform="translate(3.689 3.039)" fill="#1b8ff4"/>
      <path id="路径" d="M10.162,11.8a1.585,1.585,0,0,1-1.131-.481L.466,2.756a1.638,1.638,0,0,1,0-2.29,1.638,1.638,0,0,1,2.29,0l8.565,8.565a1.625,1.625,0,0,1-1.159,2.77Z" transform="translate(19.419 19.278)" fill="#1b8ff4"/>
      <path id="路径-2" data-name="路径" d="M1.611,19.165A1.611,1.611,0,0,1,0,17.554V1.611a1.611,1.611,0,0,1,3.222,0V17.525A1.635,1.635,0,0,1,1.611,19.165Z" transform="translate(25.539 13.554)" fill="#1b8ff4"/>
      <path id="路径-3" data-name="路径" d="M4.042,3.222H1.611A1.611,1.611,0,0,1,1.611,0H4.042a1.611,1.611,0,0,1,0,3.222Z" transform="translate(7.392 24.889)" fill="#1b8ff4"/>
      <path id="路径-4" data-name="路径" d="M4.014,3.222h-2.4A1.611,1.611,0,0,1,1.611,0H4.042A1.61,1.61,0,0,1,5.653,1.611,1.635,1.635,0,0,1,4.014,3.222Z" transform="translate(41.284 24.889)" fill="#1b8ff4"/>
      <path id="路径-5" data-name="路径" d="M1.611,5.653A1.61,1.61,0,0,1,0,4.042V1.611a1.611,1.611,0,0,1,3.222,0V4.042A1.629,1.629,0,0,1,1.611,5.653Z" transform="translate(25.511 6.685)" fill="#1b8ff4"/>
      <path id="路径-6" data-name="路径" d="M1.611,5.653A1.61,1.61,0,0,1,0,4.042V1.611a1.611,1.611,0,0,1,3.222,0V4.042A1.629,1.629,0,0,1,1.611,5.653Z" transform="translate(25.511 40.662)" fill="#1b8ff4"/>
    </g>
  </g>
</svg>
