<svg xmlns="http://www.w3.org/2000/svg" width="219" height="101" viewBox="0 0 219 101">
  <g id="组_627" data-name="组 627" transform="translate(-236.5 -3164.5)" opacity="0.5">
    <g id="组_598" data-name="组 598" transform="translate(264.5 3164.5)">
      <rect id="矩形_575" data-name="矩形 575" width="51" height="51" fill="none"/>
      <path id="路径_711" data-name="路径 711" d="M80.077,301.689c-1.613.113-1.457-.75-.5-2,2.186-2.915,6.232-6.874,6.415-9.767.252-3.756-3.526-4.918-7.416-4.918a25.224,25.224,0,0,0-7.416,1.5c-6.575,2.32-10.7,5.963-13.31,10.062-2.706,4.051-1.865,7.945,3.981,8.058a23.109,23.109,0,0,0,10.4-2.958c.022,0-8.349,2.39-11.446.638a1.324,1.324,0,0,1-.772-1.136c0-1.436,2.368-2.936,3.756-3.413v-2.459a9.51,9.51,0,0,0,8.921-1.388,2.264,2.264,0,0,1,.16.911h.477a1.762,1.762,0,0,0-1.639-2,2.993,2.993,0,0,1,.659.638l-.043.043-.022.022a8.8,8.8,0,0,1-7.507,1.3l2.025-1.982-.568-1.436a73.439,73.439,0,0,1,12.877-3.413l-1.236-1,.638-.386c3.274.911,5.482,1.592,5.369,3.322a3.432,3.432,0,0,1-.343,1c-.976,1.934-3.843,5.053-5,6.4a26.344,26.344,0,0,0-2.025,2.529,4.378,4.378,0,0,0-.911,2.32c.113,5.716,16.975-2.685,20.3-4.9C91.045,299.343,85.789,301.325,80.077,301.689Zm3.687-13.137a1.732,1.732,0,0,1,.178.828A2.026,2.026,0,0,0,83.763,288.552Z" transform="translate(-50.755 -269.441)" fill="#fff"/>
    </g>
    <g id="组_601" data-name="组 601" transform="translate(320.683 3164.5)">
      <g id="组_599" data-name="组 599" transform="translate(0 0)">
        <rect id="矩形_575-2" data-name="矩形 575" width="51" height="51" transform="translate(-0.183)" fill="none"/>
      </g>
      <g id="组_600" data-name="组 600" transform="translate(10.861 12.74)">
        <path id="路径_712" data-name="路径 712" d="M5,7,8.852,8.541V30.111L5,31.652Z" transform="translate(-5 -7)" fill="#fff"/>
        <path id="路径_713" data-name="路径 713" d="M16,23l3.852,1.541v9.245L16,35.326Z" transform="translate(-7.526 -10.674)" fill="#fff"/>
        <path id="路径_714" data-name="路径 714" d="M27,20.541,30.852,19V31.326L27,29.785Z" transform="translate(-10.052 -9.755)" fill="#fff"/>
        <path id="路径_715" data-name="路径 715" d="M38,9l3.852,1.541v20.03L38,32.111Z" transform="translate(-12.577 -7.459)" fill="#fff"/>
      </g>
    </g>
    <g id="组_603" data-name="组 603" transform="translate(376.867 3164.5)">
      <g id="组_602" data-name="组 602" transform="translate(0 0)">
        <g id="组_599-2" data-name="组 599">
          <rect id="矩形_575-3" data-name="矩形 575" width="51" height="51" transform="translate(-0.367)" fill="none"/>
        </g>
      </g>
      <path id="路径_716" data-name="路径 716" d="M101.741,54.676l-.03-.121-.03-.152-.03-.091v-.394l.03-.121.061-.152.03-.182.182-.364.121-.182v-.243l.03-.182.061-.182.03-.212.061-.091.091-.182.061-.061v-.455l.03-.243.061-.273.061-.333.091-.333.061-.212.061-.182.091-.212.091-.182.091-.243.091-.212.121-.212.152-.243.091-.121.061-.091.182-.243.152-.243.182-.243.424-.485.243-.212.273-.273.182-.152.212-.182.243-.152.212-.152.243-.121.243-.091.3-.152.819-.273.606-.121.333-.061.606-.061.333-.03h.97l.333.03.334.061.333.03.3.061.333.091.3.061.333.091.606.243.334.121.546.3.273.182.243.152.121.121.121.061.212.182.364.364.182.212.152.182.182.212.243.424.152.212.091.212.212.424.091.212.121.424.091.212.03.152.061.212.091.364.091.333.03.333.03.243.061.394.061.121.121.182.091.152.061.152.182.3.061.212.061.182.03.212.03.091v.485l-.03.152-.061.243-.061.121-.061.152v.03l.03.061.061.091.3.424.212.333.121.212.152.212.121.273.152.273.333.667.182.424.061.212.091.212.061.182.061.212.061.364.061.394.03.364.03.485-.03.182-.03.273-.061.273-.091.243v.121l-.121.182-.061.121-.121.121-.061.091-.061.061-.091.03-.121.061h-.091l-.061-.03-.091-.061-.121-.061-.212-.212-.121-.152-.182-.3-.061-.121-.152-.273-.121-.273h-.03l-.061.061-.03.061-.061.091-.091.243-.152.364-.182.455-.121.212-.3.485-.182.273-.091.121-.364.364.061.061.121.091.546.243.243.121.637.455.091.091.061.091.091.091.061.121.091.273v.273l-.061.121v.061l-.061.061-.091.152-.091.091-.061.091-.061.061-.152.091-.152.121-.182.091-.182.061-.212.091-.121.03-.091.03-.273.061-.485.121-.3.03-.273.03-.3.03h-.909l-.333-.03-.3-.03-.667-.061-.333-.061-.334-.091-.334-.061-.333-.091-.334-.121-.333-.091-.182-.061-.152-.061-.182-.061h-.273l-.334-.03h-.152l-.212-.03-.121.121-.182.121-.243.121-.273.152-.152.061-.182.061-.364.152-.424.121-.3.061h-.182l-.182.03-.212.03h-1.789l-.515-.061-.273-.03-.273-.061-.243-.03-.273-.061-.485-.121-.212-.091-.182-.061-.212-.091-.152-.121-.182-.121-.182-.182-.03-.061-.061-.061-.03-.091-.061-.152v-.061l-.03-.091v-.091l.03-.091-.03-.091.03-.091v-.273l.061-.091.03-.121.091-.182.061-.061.091-.121.091-.061.061-.061.091-.03.091-.061.091-.03.243-.121.121-.03.3-.061h.152l.182-.03h.061l.03-.03v-.03l-.03-.03-.091-.061-.243-.182-.364-.3-.182-.182-.212-.243-.212-.273-.091-.121-.121-.152-.182-.364-.121-.182-.061-.182-.273-.637-.061-.273h-.03v-.03h-.03l-.03.03h-.03l-.03.03v.061l-.061.121-.091.212-.061.121-.091.091-.091.121-.121.152-.091.121-.152.121-.243.182-.152.091-.152.061-.152.03-.182.03h-.03l-.03-.03-.03-.061-.061-.03-.061-.152-.03-.091-.061-.091-.03-.152v-.121l-.061-.273-.03-.152v-.546l.03-.394.091-.637.061-.212.121-.485.182-.485.243-.485.152-.243.152-.273.182-.212.152-.273.152-.182.182-.212.424-.424.152-.121.152-.152.273-.243.212-.152Z" transform="translate(-84.184 -30.478)" fill="#fff"/>
    </g>
    <g id="组_604" data-name="组 604" transform="translate(236.05 3214.5)">
      <g id="组_605" data-name="组 605" transform="translate(0 0)">
        <g id="组_602-2" data-name="组 602">
          <g id="组_599-3" data-name="组 599">
            <rect id="矩形_575-4" data-name="矩形 575" width="50" height="51" transform="translate(0.45)" fill="none"/>
          </g>
        </g>
        <path id="路径_717" data-name="路径 717" d="M13.317,0A13.528,13.528,0,0,0,0,11.176c1.74.336,3.28.6,4.818.869,3.346.8,4.818.4,5.286,0,.2-.4.6-1.873-1.072-1.673s-4.818.6-4.618-1.272c.4-2.076,4.217-2.076,7.162-1.272A2.916,2.916,0,0,0,9.436,6.556c-1.673-.2-2.544-.2-2.341-1.272,0-1.072,1.272-1.673,3.346-.4a14.486,14.486,0,0,1,2.945,3.145s5.086,1.072,8.031,3.145c0,0,2.341,1.673-.4,3.346-2.341.8-2.745-.6-7.362,1.272-4.417,1.678-9.035,4.623-9.907,5.624a4.061,4.061,0,0,0-.536.736,13.553,13.553,0,0,0,10.039,4.485,13.3,13.3,0,0,0,13.52-13.252A13.481,13.481,0,0,0,13.317,0Z" transform="translate(11.898 12.175)" fill="#fff"/>
      </g>
    </g>
    <g id="组_608" data-name="组 608" transform="translate(292.234 3215.364)">
      <g id="组_607" data-name="组 607" transform="translate(0)">
        <g id="组_605-2" data-name="组 605" transform="translate(0 0)">
          <g id="组_602-3" data-name="组 602">
            <g id="组_599-4" data-name="组 599">
              <rect id="矩形_575-5" data-name="矩形 575" width="50" height="50" transform="translate(0.266 0.136)" fill="none"/>
            </g>
          </g>
        </g>
      </g>
      <g id="组_606" data-name="组 606" transform="translate(13.066 12.797)">
        <path id="路径_718" data-name="路径 718" d="M287.228,292.221a8.628,8.628,0,1,1,1.092-17.164A8.111,8.111,0,0,1,292.671,277c.685.581.669.841-.09,1.277-.659.379-1.322.751-1.978,1.136-1.814,1.063-3.639,2.107-5.432,3.2a1.716,1.716,0,0,0-.615,2.5,1.937,1.937,0,0,0,2.9.607c3.543-2.049,7.074-4.118,10.628-6.148a.811.811,0,0,0,.391-1.246,11.643,11.643,0,0,0-4.088-4.877,12.131,12.131,0,0,0-12.667-1.089A11.994,11.994,0,0,0,274.58,282.8a12.145,12.145,0,0,0,4.03,10.053,12.461,12.461,0,0,0,15.194,1.357c1.19-.8,1.19-.8.452-2.031-.8-1.327-1.589-1.573-2.973-.909A8.211,8.211,0,0,1,287.228,292.221Z" transform="translate(-274.535 -271.065)" fill="#fff"/>
        <path id="路径_719" data-name="路径 719" d="M668.62,520.174a6.1,6.1,0,0,0-1.025-2.516c-.145-.26-.378-.16-.585-.041-.814.466-1.626.936-2.447,1.391a.477.477,0,0,0-.209.767c.467.788.931,1.578,1.379,2.376.195.347.428.426.764.214.491-.31,1-.6,1.471-.932A1.427,1.427,0,0,0,668.62,520.174Z" transform="translate(-643.902 -504.635)" fill="#fff"/>
      </g>
    </g>
    <g id="组_609" data-name="组 609" transform="translate(348.417 3215.364)">
      <g id="组_607-2" data-name="组 607">
        <g id="组_605-3" data-name="组 605" transform="translate(0 0)">
          <g id="组_602-4" data-name="组 602">
            <g id="组_599-5" data-name="组 599">
              <rect id="矩形_575-6" data-name="矩形 575" width="50" height="50" transform="translate(0.083 0.136)" fill="none"/>
            </g>
          </g>
        </g>
      </g>
      <path id="路径_720" data-name="路径 720" d="M27.291,5.116H22.774V9.34a8.752,8.752,0,0,1-17.5,0V5.116h17.5V0H1.234A1.233,1.233,0,0,0,0,1.233V9.492A13.114,13.114,0,0,0,1.106,14.76,13.383,13.383,0,0,0,2.4,17.06a13.846,13.846,0,0,0,1.708,2,14.242,14.242,0,0,0,1.161,1q.442.342.909.647A14.291,14.291,0,0,0,11.2,22.747a14.567,14.567,0,0,0,5.641,0,14.291,14.291,0,0,0,5.021-2.041q.468-.306.909-.647a14.069,14.069,0,0,0,1.161-1,13.822,13.822,0,0,0,1.709-2,13.4,13.4,0,0,0,1.294-2.3,13.066,13.066,0,0,0,1.106-5.268V5.116Z" transform="translate(11.322 13.977)" fill="#fff"/>
    </g>
    <g id="组_611" data-name="组 611" transform="translate(404.601 3215.364)">
      <g id="组_610" data-name="组 610">
        <g id="组_607-3" data-name="组 607" transform="translate(0)">
          <g id="组_605-4" data-name="组 605" transform="translate(0 0)">
            <g id="组_602-5" data-name="组 602">
              <g id="组_599-6" data-name="组 599">
                <rect id="矩形_575-7" data-name="矩形 575" width="51" height="50" transform="translate(-0.101 0.136)" fill="none"/>
              </g>
            </g>
          </g>
        </g>
      </g>
      <path id="路径_721" data-name="路径 721" d="M93.132,75.2c2.71-.569,2.341-3.733,2.26-4.427-.133-1.066-1.417-2.931-3.159-2.783-2.194.192-2.514,3.288-2.514,3.288-.3,1.433.711,4.491,3.414,3.922ZM96.009,80.7a2.2,2.2,0,0,0-.1,1.288,1.232,1.232,0,0,0,1.389.93h1.523V79.875H97.3a2.181,2.181,0,0,0-1.287.829Zm2.153-10.813c1.5,0,2.707-1.684,2.707-3.764s-1.21-3.762-2.707-3.762-2.707,1.683-2.707,3.762,1.213,3.764,2.707,3.764Zm6.446.249c2,.254,3.287-1.832,3.543-3.413A3.556,3.556,0,0,0,105.7,63c-1.419-.318-3.191,1.9-3.353,3.352-.193,1.771.26,3.539,2.257,3.79Zm4.9,9.3a27.332,27.332,0,0,1-4.9-4.87c-2.449-3.729-5.929-2.212-7.092-.315a15.906,15.906,0,0,1-3.222,3.414c-.26.312-3.738,2.148-2.966,5.5a4.335,4.335,0,0,0,3.683,3.566,27.593,27.593,0,0,0,4.119-.593,9.321,9.321,0,0,1,4.318.125s5.418,1.773,6.9-1.641-.837-5.184-.837-5.184Zm-9.169,5.009H96.534a2.129,2.129,0,0,1-2.021-1.412,3.854,3.854,0,0,1-.278-2.378,3.09,3.09,0,0,1,2.3-2.3h2.285V76.068h1.523v8.377Zm6.093,0h-3.808a1.493,1.493,0,0,1-1.526-1.439l0-4.654h1.523V82.16c.1.42.762.762.762.762h1.523v-4.57h1.523v6.093Zm6.1-11.65a3.092,3.092,0,0,0-3.028-3.034c-2.39,0-2.709,2.15-2.709,3.67,0,1.45.125,3.474,3.094,3.411s2.644-3.286,2.644-4.047Zm0,0" transform="translate(-75.663 -50.276)" fill="#fff"/>
    </g>
  </g>
</svg>
