<svg id="组件_23_1" data-name="组件 23 – 1" xmlns="http://www.w3.org/2000/svg" width="510" height="510" viewBox="0 0 510 510">
  <g id="设计" transform="translate(123.24 115.983)">
    <path id="路径" d="M.018,22.6c-.12-.146.381.067.567.032a2.156,2.156,0,0,0,.87-.567c.922-.768,1.741-1.636,2.625-2.446,2.572-2.358,4.954-4.972,7.7-7.124a64.139,64.139,0,0,1,10.4-7.138c1.78-.9,3.73-1.254,5.53-2.074a11.23,11.23,0,0,0,3.017-1.909,1.325,1.325,0,0,0,.437-.85c0-.043.036-.6.153-.514.417.3.67,1.523.864,1.978a23.464,23.464,0,0,1,1.667,4.778,3.415,3.415,0,0,1,.01,1.854c-.05.092-.51.066-.6.081-.626.106-1.24.29-1.854.447a15.228,15.228,0,0,0-5.491,2.569c-4.879,3.67-9.192,8.2-13.647,12.367-1.347,1.259-2.428,2.855-3.969,3.871-.392.258-.888.779-1.368.85-.363.054-1.344-1.684-1.559-1.958C4.08,25.2.018,22.6.018,22.6Z" transform="translate(24.482 249.022)" fill="#191919" stroke="#191919" stroke-miterlimit="10" stroke-width="1.321"/>
    <path id="路径-2" data-name="路径" d="M89.008.053c-.528-.495-5.914,2.621-6.376,2.882A154.45,154.45,0,0,0,62.57,16.452,190.1,190.1,0,0,0,42.059,35.986c-2.553,2.732-5.712,5.224-7.933,8.231a54.618,54.618,0,0,0-3.61,6.656c-2.6,4.839-5.078,9.743-7.717,14.564C15.227,79.266,7.342,92.948,0,106.9" transform="translate(39.222 113.936)" fill="none" stroke="#191919" stroke-miterlimit="10" stroke-width="1.321"/>
    <path id="路径-3" data-name="路径" d="M0,26.12c3.15-1.378,10.373-5.747,14.6-7.906C25.669,12.555,37.058,7.4,47.117,0" transform="translate(104.086 126.938)" fill="none" stroke="#191919" stroke-miterlimit="10" stroke-width="1.321"/>
    <path id="路径-4" data-name="路径" d="M32.369,0c-1.709,1.331-5.719,12.372-7,14.717C19.95,24.616,7.882,48.623,0,56.042" transform="translate(63.641 164.347)" fill="none" stroke="#191919" stroke-miterlimit="10" stroke-width="1.321"/>
    <path id="路径-5" data-name="路径" d="M15.448,0c.165.172-.461.136-.672.247a5.444,5.444,0,0,0-1.082.777,18.346,18.346,0,0,0-2.585,3.06A52.594,52.594,0,0,0,5,15.323c-4.88,12.4-9.35,30.223,2.781,42.293" transform="translate(90.692 26.404)" fill="none" stroke="#191919" stroke-miterlimit="10" stroke-width="1.321"/>
    <path id="路径-6" data-name="路径" d="M.164.161s0,0,0,.007" transform="translate(106.951 26.31)" fill="none" stroke="#191919" stroke-miterlimit="10" stroke-width="1.321"/>
    <path id="路径-7" data-name="路径" d="M.074.441C.748.428,1.6-.071,2.45.009,6.607.4,11.045,3.423,13.639,6.5c.324.384,2.922,3.666,2.752,4.178-.09.269-1.063.543-1.275.675a12.071,12.071,0,0,0-2.6,2.241A48.556,48.556,0,0,0,5.874,23.842c-4.3,8.49-7.425,18.581-5.061,28.1.732,2.947,1.809,6.077,3.887,8.374" transform="translate(107.477 26.054)" fill="none" stroke="#191919" stroke-miterlimit="10" stroke-width="1.321"/>
    <path id="路径-8" data-name="路径" d="M0,0S15.3,15.544,21.643,31.963C29.451,52.175,29.811,75.036,30,80.524c.09,2.572.1,10.041.26,10.111a34.777,34.777,0,0,0,4.508-1.179,22.108,22.108,0,0,0,.9-3.417c.8-6.647-.223-13.961-1.337-20.512-1.1-6.447-6.543-26.788-8.027-30.521-1.269-3.192-6.675-13.426-8.027-15.158-1.566-2.006-2.857-4.228-4.432-6.234C11.619,10.776,3.082.217,0,0Z" transform="translate(169.926 62.454)" fill="#191919" stroke="#191919" stroke-miterlimit="10" stroke-width="1.321"/>
    <path id="路径-9" data-name="路径" d="M19.123,3.252c.054.094-.182-.116-.264-.187-.2-.169-.364-.37-.555-.545A7.852,7.852,0,0,0,16.555,1.3,11.186,11.186,0,0,0,10.217.04C4.779.429-.346,5.424.018,11.113c.218,3.4,4.037,4.481,6.844,4.253a13.532,13.532,0,0,1,3.745-.236c.123.029.073.171.061.26a7.4,7.4,0,0,0,.042,2.677A4.451,4.451,0,0,0,14.7,21.331a5.329,5.329,0,0,0,3.765-.864c.461-.386.885-1.279,1.407-1.54a3.992,3.992,0,0,1,.376.641,2.44,2.44,0,0,0,1,1,7.945,7.945,0,0,0,4.678.58,6.294,6.294,0,0,0,3-1.444c.1-.085,1.268-1.291,1.39-1.169.392.392.024,2.458.045,2.931.075,1.717-1.8,5.521-1.049,5.279a5.439,5.439,0,0,1,2.1.169c.978.258.352,2.1-.119,2.644-2.171,2.524-2.541,2.055-4.6,3.289-.714.428-3.145,3.952-3.192,4.708s1.634,1.082,2.112,1.2c2.477.59,4.676-.146,6.874-1.306,3.167-1.672,6.5-4.259,8.244-7.446a27.775,27.775,0,0,0,2.5-7.819A21.235,21.235,0,0,0,42.061,9.816C39.5,3.48,32.834,1.526,30.97,1.363A28.746,28.746,0,0,0,18.785,2.992" transform="translate(146.381 17.83)" fill="#191919" stroke="#191919" stroke-miterlimit="10" stroke-width="1.321"/>
    <path id="路径-10" data-name="路径" d="M.061,14.767c-.208-.139.176-.973.225-1.11A28.094,28.094,0,0,1,1.649,10.45,8.384,8.384,0,0,1,8.64,5.7c3.174-.434,6.4,1.475,9,3.067,1.6.983,3.456,2.34,5.449,2.053,1.631-.235,2.874-1.6,3.869-2.808,1.57-1.9,2.967-3.851,5.093-5.2C39.184-1.694,49.219-.74,55.109,5.33c1.631,1.68,2.045,4.075,3.438,5.893.974,1.272,2.7,1.36,3.956,2.225,1.42.982,1.718,3.146,1.624,4.738a12.005,12.005,0,0,1-2.263,5.554c-2.226,3.477-5.195,8.356-9.4,9.644-3.859,1.183-6.666-.821-9.747-2.92-1.157-.788-2.457-2.166-3.95-2.259-1.3-.08-2.509,1.016-3.554,1.635-2.083,1.233-4.454,2.708-6.912,2.873a14.91,14.91,0,0,1-8.114-2.076,23.226,23.226,0,0,0-3.4-2.033c-1.447-.5-3.307.393-4.6-.442-1.115-.722-.973-2.348-2.115-3.054a6.832,6.832,0,0,0-3.054-.751c-.437-.025-1.216.163-1.588-.127s-.363-1.094-.453-1.517a6.934,6.934,0,0,0-.9-2.135C3.2,19.108,2.718,17.062,1.69,15.74a5.461,5.461,0,0,0-1.628-.973Z" transform="translate(179.526 4.984)" fill="#191919" stroke="#191919" stroke-miterlimit="10" stroke-width="1.321"/>
    <path id="路径-11" data-name="路径" d="M0,0C.014-.007.078.358.085.377a2.292,2.292,0,0,0,.469.667A18.406,18.406,0,0,0,2.418,2.779,75.186,75.186,0,0,0,8.641,7.652a55.685,55.685,0,0,0,16.9,7.844c2.252.6,5.016,1.419,7.38,1.07,1.52-.224,3.069-1.377,4.426-2.03,1-.482,2-.971,3.014-1.435a4.141,4.141,0,0,0,1.392-.719c.065-.078-3.091-.8-4.1-1.191-2.55-.979-16.386-3.865-19.911-5.313C13.218,4.019,7.823,1.953,3.131.54A25.5,25.5,0,0,0,0,0Z" transform="translate(85.591 100.843)" fill="#191919" stroke="#191919" stroke-miterlimit="10" stroke-width="1.321"/>
    <path id="路径-12" data-name="路径" d="M103.5,0c.49.031,1.947,6.62-9.444,17.857-22.713,22.407-56.6,35.019-56.6,35.019s-6.77,14.9-9.558,20.215C19.018,90.015,10.606,107.012,0,122.922" transform="translate(65.664 109.269)" fill="none" stroke="#191919" stroke-miterlimit="10" stroke-width="1.643"/>
    <path id="路径-13" data-name="路径" d="M50.494,0c0-.006-.656.441-.729.522-.39.43-.8.845-1.2,1.266C47.275,3.15,45.963,4.5,44.68,5.871c-3.636,3.884-7.65,8.136-12.334,10.753C26.339,19.979,18.781,24.8,11.89,25.262a39.85,39.85,0,0,1-8.549-.3c-.709-.138-3.069-1.234-3.3-1-.287.287,1.141,1.749,1.434,2.029,3.743,3.592,10.8,7.844,12.83,8.378,2.518.664,6.35,1.34,8.787.2,2.767-1.291,3.753-4.02,5.275-6.432a60.6,60.6,0,0,1,7.366-9.573C39.636,14.51,47.6,7.915,49.8,2.858A15.9,15.9,0,0,0,50.494,0Z" transform="translate(111.985 62.409)" fill="#191919" stroke="#191919" stroke-miterlimit="10" stroke-width="1.321"/>
    <path id="路径-14" data-name="路径" d="M4.653,0c.214.4-.487.767-.7,1.164A41.545,41.545,0,0,0,2.092,5.178q-.453,1.087-.814,2.206c-.762,2.349-2.587,7.4.276,9.1,1.876,1.112,4.888.6,6.947.464" transform="translate(157.994 36.117)" fill="none" stroke="#191919" stroke-miterlimit="10" stroke-width="1.321"/>
    <path id="路径-15" data-name="路径" d="M.679.012C.622-.068.844.277.86.306c.138.251.276.5.393.763A6.091,6.091,0,0,1,1.778,3.39a13.9,13.9,0,0,1-.431,3.476c-.3,1.294-2.253,3.393-.837,3.889.744.261,6.682-.978,7.3-1.8.3-.4.068-1.879.108-2.355A15.687,15.687,0,0,1,9.084,1.849" transform="translate(161.735 53.588)" fill="none" stroke="#191919" stroke-miterlimit="10" stroke-width="1.321"/>
    <path id="路径-16" data-name="路径" d="M22.52,0s-6.862,6.081-8.53,7.844c-3.315,3.5-6.413,7.181-9.682,10.722C2.941,20.047.482,22.353.041,24.431c-.486,2.29,3.495,5.365,4.841,6.81C10.4,37.162,15.945,42.966,21.3,49.056a134.961,134.961,0,0,0,10.086,10.3c1.167,1.072,2.8,2.967,4.572,2.606,1.275-.26,9.109-9.215,11.871-12.744C50.611,45.66,53.4,42.135,56.4,38.751c1.018-1.148,3.441-3.237,3.515-4.94.136-3.138-6.736-7.8-8.973-9.534C45.511,20.068,27.691,2.387,22.52,0Z" transform="translate(144.665 192.212)" fill="#191919" stroke="#191919" stroke-miterlimit="10" stroke-width="1.321"/>
    <path id="路径-17" data-name="路径" d="M1.884.235A2.81,2.81,0,0,0,.039,3.443a3.183,3.183,0,0,0,3.21,2.545c1.58.034,2.232-.814,2.531-2.314C6.049,2.32,5.092-.89,1.884.235Z" transform="translate(180.587 208.648)" fill="none" stroke="#fff" stroke-miterlimit="10" stroke-width="1.321"/>
    <path id="路径-18" data-name="路径" d="M0,0C.008-.009.859.946.908.994c.643.639,1.269,1.3,1.932,1.916,2.006,1.875,4.115,3.66,6.234,5.4A167.755,167.755,0,0,1,27.8,26.758c2.216,2.493,6.462,8.286,9.416,10.068" transform="translate(159.637 198.893)" fill="none" stroke="#fff" stroke-miterlimit="10" stroke-width="1.321"/>
    <path id="路径-19" data-name="路径" d="M0,13.8S3.167,19.019,3.449,19c.5-.038,4.3-2.9,4.8-3.242,3.962-2.73,8.061-7.847,9.161-8.44a21.086,21.086,0,0,1,7.941-2.707c2.445-.323,5.124-.39,5.124-.39a4.622,4.622,0,0,0,.539-2.528A5.8,5.8,0,0,0,30.782.078c-.14-.34-1.9.537-2.172.61a12.408,12.408,0,0,1-4.153.136C17.275.311,12.052,5.993,6.579,10.08,5.381,10.974,2.3,13.706,0,13.8Z" transform="translate(11.159 168.957)" fill="#191919" stroke="#191919" stroke-miterlimit="10" stroke-width="1.321"/>
    <path id="路径-20" data-name="路径" d="M0,0S1.738,10.277,1.964,11.236a17.023,17.023,0,0,0,.5,1.772c.183-.147,2.236-3.784,2.3-3.794.428-.072,4.41-.126,4.4-.181C9.133,8.87,1.224.816.719.385.541.233.262-.017,0,0Z" transform="translate(39.485 40.166)" fill="#191919" stroke="#191919" stroke-miterlimit="10" stroke-width="1.321"/>
    <path id="路径-21" data-name="路径" d="M0,0S1.738,10.277,1.964,11.236a17.023,17.023,0,0,0,.5,1.772c.183-.147,2.236-3.784,2.3-3.794.428-.072,4.411-.126,4.4-.181C9.133,8.87,1.224.816.719.385.541.233.262-.017,0,0Z" transform="translate(40.423 38.575)" fill="#fff" stroke="#191919" stroke-miterlimit="10" stroke-width="1.321"/>
    <g id="编组" transform="translate(187.947 166.589)">
      <path id="路径-22" data-name="路径" d="M1.084.005c0-.016-.021.01-.024.014C.879.2.883.595.849.829.766,1.4.7,1.962.664,2.537.56,4.3.405,6.063.329,7.829.183,11.2,0,14.583,0,17.96c0,2.089,0,4.5,1.01,6.4.825,1.549,1.921,1.031,2.546-.382.9-2.043,1-4.411,1.347-6.593a11.822,11.822,0,0,1,.539-2.312,3.643,3.643,0,0,1,.335-.7c.014-.022.27-.321.187-.279-.786.393.517,2.744.679,3.154C8.06,20.818,9.266,23.176,9.835,27.1c.545,3.758-.107,7.3-.425,11.034-.079.925-.463,3.361.76,3.792,1.941.683,3.369-2.867,3.826-4.065.162-.424.312-.853.445-1.287,2.226-7.256.139-13.12-1.079-20.2" transform="translate(0.104 2.692)" fill="none" stroke="#191919" stroke-miterlimit="10" stroke-width="1.321"/>
      <path id="路径-23" data-name="路径" d="M2.841,0a7.381,7.381,0,0,1,.3,1.663,33.475,33.475,0,0,1,.378,3.964,35.584,35.584,0,0,1-.839,8.631,13.013,13.013,0,0,1-1.475,4.264A11.3,11.3,0,0,1,0,19.871" transform="translate(14.846 18.823)" fill="none" stroke="#191919" stroke-miterlimit="10" stroke-width="1.321"/>
      <path id="路径-24" data-name="路径" d="M1.827,0c-.209.051.165.4.245.6a13.212,13.212,0,0,1,.456,1.355A21.809,21.809,0,0,1,3.3,6.385a13.707,13.707,0,0,1-.728,5.91C1.941,13.913.643,15.923,0,17.531" transform="translate(17.428 16.928)" fill="none" stroke="#191919" stroke-miterlimit="10" stroke-width="1.321"/>
      <path id="路径-25" data-name="路径" d="M0,0C.184-.048,1,1.115,1.181,1.346,2.388,2.851,3.59,4.363,4.758,5.9A28.556,28.556,0,0,1,10.4,20.354c.184,2.046.321,4.734-.741,6.618-.251.446-1.837,2.664-2.164,3.056" transform="translate(12.162 0.284)" fill="none" stroke="#191919" stroke-miterlimit="10" stroke-width="1.321"/>
    </g>
    <path id="路径-26" data-name="路径" d="M32.376,0c2.875,5.527,5.119,11.557,5.237,17.847.143,7.573-1.433,14.606-3.391,21.846-.207.764-1.185,6.3-1.766,6.646C31.444,46.946,20.034,44.777,18,44.32,12.683,43.124.865,41.648.02,34.542-.164,33,1,31.451,1.4,30" transform="translate(137.344 62.647)" fill="none" stroke="#191919" stroke-miterlimit="10" stroke-width="1.321"/>
    <path id="路径-27" data-name="路径" d="M0,61.638c-.061-.252,1.016-1.364,1.179-1.577C2.457,58.4,3.841,56.82,5.187,55.217c2.066-2.459,3.671-5.28,5.507-7.908,2.923-4.184,6.1-8.227,9.258-12.231,4.815-6.1,9.424-12.449,14.013-18.721,4.011-5.481,8.91-11.817,15.177-14.886,6.865-3.362,15.545-.228,22.228,2.11,4.251,1.487,8.338,3.412,12.539,5.032,6.895,2.66,14.009,5.113,20.583,8.52,3.533,1.83,7.695,4.073,11.253,5.853" transform="translate(27.273 80.561)" fill="none" stroke="#191919" stroke-miterlimit="10" stroke-width="1.321"/>
    <path id="路径-28" data-name="路径" d="M31.014.078c-.119-.506-.8,1.588-.959,1.945C29.34,3.6,28.6,5.147,27.811,6.684c-2.386,4.644-5.013,9.17-7.644,13.679-4.77,8.178-9.607,16.149-15.979,23.2C2.4,45.541,0,47.038,0,47.552" transform="translate(54.853 100.806)" fill="none" stroke="#191919" stroke-miterlimit="10" stroke-width="1.321"/>
    <path id="路径-29" data-name="路径" d="M0,0C-.1.094,2.192,3.772,2.3,3.955c2.388,4.163,4.849,8.315,7.084,12.562" transform="translate(176.555 72.154)" fill="none" stroke="#191919" stroke-miterlimit="10" stroke-width="1.321"/>
    <path id="路径-30" data-name="路径" d="M0,0C1.494,1.328,3.04,8.84,3.562,10.762,6.6,21.972,7.187,33.353,6.956,44.906" transform="translate(190.565 99.972)" fill="none" stroke="#191919" stroke-miterlimit="10" stroke-width="1.321"/>
    <path id="路径-31" data-name="路径" d="M0,0c-.084.192,1.965,5.073,2.13,5.581a154.413,154.413,0,0,1,4.1,16.428,218.981,218.981,0,0,1,4.1,40.72c.045,3.6-2.065,15.648-1.162,17.53.61,1.27,6.568,1.3,7.778,1.261a38.934,38.934,0,0,0,4.733-.513c9.787-1.551,6.707-7.311,8.354-15.547" transform="translate(174.932 86.47)" fill="none" stroke="#191919" stroke-miterlimit="10" stroke-width="1.321"/>
    <path id="路径-32" data-name="路径" d="M0,2.7c.078.163.835.311,1.01.356a12.166,12.166,0,0,0,3.306.276C8.4,3.228,13.278,2.468,16.671,0" transform="translate(188.454 151.508)" fill="none" stroke="#191919" stroke-miterlimit="10" stroke-width="1.321"/>
    <path id="路径-33" data-name="路径" d="M3.148,0A3.016,3.016,0,0,0,1.994.365,4.494,4.494,0,0,0,.158,2.676,2.925,2.925,0,0,0,2.774,6.459a3.279,3.279,0,0,0,1.383-.166C7.393,5.184,6.633.213,3.148,0Z" transform="translate(222.577 60.258)" fill="none" stroke="#191919" stroke-miterlimit="10" stroke-width="1.321"/>
    <path id="路径-34" data-name="路径" d="M.08,0C-.667,2.695,4,10.613,5.537,12.984" transform="translate(118.654 67.36)" fill="none" stroke="#191919" stroke-miterlimit="10" stroke-width="1.321"/>
    <path id="路径-35" data-name="路径" d="M0,0A7.6,7.6,0,0,1,.679,1.68" transform="translate(115.884 59.901)" fill="none" stroke="#191919" stroke-miterlimit="10" stroke-width="1.321"/>
    <path id="路径-36" data-name="路径" d="M.036,23.756c-.093.107.02-.284.047-.423.079-.405.169-.809.276-1.208a20.512,20.512,0,0,1,1.215-3.193,28.65,28.65,0,0,1,5.5-7.837C13.727,4.156,21.387.129,30.977.005,45.724-.186,54.192,4.862,63.725,13.731,71.236,20.717,76.171,26,79.333,32.9" transform="translate(35.398 20.708)" fill="none" stroke="#191919" stroke-miterlimit="10" stroke-width="1.321"/>
    <path id="路径-37" data-name="路径" d="M.7,0C.423.219.4,1.319.353,1.689A42.709,42.709,0,0,0,.007,6.553c-.2,9.042,4,14.805,10.42,20.8,9.625,8.984,18.684,12.151,31.162,15.092,7.466,1.759,41.646,2.585,45.119,2.726" transform="translate(34.716 44.199)" fill="none" stroke="#191919" stroke-miterlimit="10" stroke-width="1.321"/>
    <path id="路径-38" data-name="路径" d="M0,1.138c.437-.685,1.625.088,2.437.065Q5.644,1.114,8.84.86C18.233.109,27.563.461,36.967.213c28.721-.756,65.5-.567,88.41,19.379,28.61,24.9,16.676,62.139-22.02,65.3-11.75.961-22.977,1.116-34.543-1.141C55.734,81.2,37.921,70.124,27.05,62.45" transform="translate(122.038 87.562)" fill="none" stroke="#191919" stroke-miterlimit="10" stroke-width="1.321"/>
    <path id="路径-39" data-name="路径" d="M0,4.8C5.979,5.616,13.245,3.374,18.2,0" transform="translate(219.524 159.309)" fill="none" stroke="#191919" stroke-miterlimit="10" stroke-width="1.321"/>
    <path id="路径-40" data-name="路径" d="M1.179.049c.2-.271-.164.658-.248.987C.671,2.049.357,3.059,0,4.041" transform="translate(252.359 142.828)" fill="none" stroke="#191919" stroke-miterlimit="10" stroke-width="1.321"/>
    <path id="路径-41" data-name="路径" d="M.978,46.052c.378.411-.4-1.048-.5-1.6A28.792,28.792,0,0,1,.1,41.126a67.374,67.374,0,0,1,.2-9.91C1.17,21.049,3.236,7.77,10.617,0" transform="translate(0.297 114.376)" fill="none" stroke="#191919" stroke-miterlimit="10" stroke-width="1.321"/>
    <path id="路径-42" data-name="路径" d="M0,12.4C.3,12.035,1.753,2.366,2.761,0" transform="translate(11.464 130.366)" fill="none" stroke="#191919" stroke-miterlimit="10" stroke-width="1.321"/>
    <path id="路径-43" data-name="路径" d="M0,2.217A46.377,46.377,0,0,1,4.507.708a17.715,17.715,0,0,1,16.3,3.424" transform="translate(96.886 38.323)" fill="none" stroke="#191919" stroke-miterlimit="10" stroke-width="1.321"/>
    <path id="路径-44" data-name="路径" d="M1.611.944a.774.774,0,0,0-.344-.8,1.062,1.062,0,0,0-.824-.1C-.058.2-.065,1.057.086,1.457.389,2.257,1.559,1.95,1.611.944Z" transform="translate(33.525 43.103)" fill="none" stroke="#191919" stroke-miterlimit="10" stroke-width="1.321"/>
    <path id="路径-45" data-name="路径" d="M.136,0C.2-.026.014.1.006.169A1.418,1.418,0,0,0,.083.761,3.852,3.852,0,0,0,1.125,2.146a37.041,37.041,0,0,0,4.81,3.879,42.974,42.974,0,0,0,6.554,3.436,55.03,55.03,0,0,0,8.623,3.457c1.476.407,5.07-.5,5.3-1.18" transform="translate(39.126 220.77)" fill="none" stroke="#191919" stroke-miterlimit="10" stroke-width="1.321"/>
    <path id="路径-46" data-name="路径" d="M23.06,0c.089.146-.268.215-.379.345-.34.4-.683.8-1.009,1.216-1.55,1.965-3.026,4.008-4.379,6.113A188.021,188.021,0,0,0,3.53,33.34a54.484,54.484,0,0,0-3.1,8c-.061.232-.7,2.183-.293,2.386" transform="translate(24.13 228.077)" fill="none" stroke="#191919" stroke-miterlimit="10" stroke-width="1.321"/>
    <path id="路径-47" data-name="路径" d="M3.176,0c-.086-.078-.54.854-.562.9A27.554,27.554,0,0,0,1.235,4.193,27.5,27.5,0,0,0,.267,16.51" transform="translate(55.393 233.052)" fill="none" stroke="#191919" stroke-miterlimit="10" stroke-width="1.321"/>
    <path id="路径-48" data-name="路径" d="M.062,0C-.179.173.351.518.5.776A11.764,11.764,0,0,0,2.276,3.07C3.9,4.752,6.509,6.79,8.867,7.241c1.06.2,1.409-.447,1.806-1.335.076-.17.4-.711.265-.908s-.667-.278-.875-.36c-.772-.3-1.527-.645-2.282-.99C6.824,3.21,5.85,2.842,4.855,2.5,3.321,1.966,2.036,1.016.561.426" transform="translate(47.208 228.25)" fill="#191919" stroke="#191919" stroke-miterlimit="10" stroke-width="1.321"/>
    <path id="路径-49" data-name="路径" d="M0,12.639c.086.217,1.692-.2,1.816-.223A10.968,10.968,0,0,0,6.924,9.9a16.483,16.483,0,0,0,3.929-6.411A25.1,25.1,0,0,0,11.6,1.074c.062-.234.08-.735.317-.879A3.548,3.548,0,0,1,13.764.05c1.423.084,2.862.162,4.274.356a28.338,28.338,0,0,1,3.224.662c.229.059.872.1,1,.356" transform="translate(34.862 234.998)" fill="none" stroke="#191919" stroke-miterlimit="10" stroke-width="1.321"/>
    <path id="路径-50" data-name="路径" d="M7.944,10.286c.057.092-.053-.209-.076-.315-.043-.2-.085-.4-.13-.594A17.579,17.579,0,0,1,7.4,7.4a12.872,12.872,0,0,1,.412-5.992c.2-.518.7-1.6,1.446-1.385.853.248.97,1.593.966,2.3-.014,2.366-1.619,4.419-2.542,6.5-.226.51-.114,1.915-.506,2.266-.28.251-1.853-.591-2.212-.63a9.152,9.152,0,0,0-4.95.912c-.089.059.209-.045.312-.072q.245-.062.493-.115.762-.163,1.531-.3c1.535-.272,3.589-.786,5.123-.241,1.067.379.663,2.779.832,3.688a8.878,8.878,0,0,0,.247,1.027c.053.169.1.647.2.495.064-.106-.106-.6-.126-.716a10.854,10.854,0,0,0-.658-2.466c-.091-.21-.412-.931-.755-.712-.57.362-.537,1.6-.61,2.166-.174,1.342-.371,3.571-1.307,4.655-.081.094-.2-.152-.287-.187a.814.814,0,0,0-.669.091c-.19.1-1,.976-1.159.927-.017,0,.341-.587.362-.623q.354-.586.695-1.179.595-1.043,1.2-2.08c.018-.031.346-.643.367-.636a8.653,8.653,0,0,1-.449,1.105c-.5,1.02-1.033,2.03-1.554,3.041-.037.073-.493.784-.421.855s.87-.527.955-.573a6.432,6.432,0,0,1,2.575-.823c.176-.011.738-.067.87.106.028.036-.4.075-.427.078-.3.034-.6.08-.89.143a8.37,8.37,0,0,0-2.412.825,7.184,7.184,0,0,0-2.136,2.015c-.056.079-.529.71-.378.786.365.182,1.551-.635,1.9-.777" transform="translate(26.658 237.171)" fill="none" stroke="#191919" stroke-miterlimit="10" stroke-width="1.321"/>
    <path id="路径-51" data-name="路径" d="M.005,31.4c-.069,0,.589-2.252.618-2.329A47.651,47.651,0,0,1,4.1,21.811,77.976,77.976,0,0,1,23.322,0" transform="translate(99.349 208.747)" fill="none" stroke="#191919" stroke-miterlimit="10" stroke-width="1.321"/>
    <path id="路径-52" data-name="路径" d="M0,10.153c.141.057.056-.3.115-.44A10,10,0,0,1,.61,8.755,26.992,26.992,0,0,1,2.1,6.442,54.451,54.451,0,0,1,7.4,0" transform="translate(116.18 219.118)" fill="#969696" stroke="#191919" stroke-miterlimit="10" stroke-width="1.321"/>
    <path id="路径-53" data-name="路径" d="M1.319.061C.656-.289-.418.952.17,1.513c.627.6,1.757-.485,1.32-1.2" transform="translate(20.239 87.897)" fill="none" stroke="#191919" stroke-miterlimit="10" stroke-width="1.321"/>
    <path id="路径-54" data-name="路径" d="M.888,1.464C.736,1.667.317,1.4.2,1.292A.8.8,0,0,1,.464.048c.8-.324,1.6,1.09.8,1.39" transform="translate(52.442 3.818)" fill="none" stroke="#191919" stroke-miterlimit="10" stroke-width="1.321"/>
    <path id="路径-55" data-name="路径" d="M1.258,31.657c-.014,0,.24-.388.249-.4.205-.329.406-.66.588-1,.48-.9.931-1.818,1.4-2.726C4.9,24.778,6.27,22.014,7.734,19.293c2.881-5.353,5.852-10.682,9.21-15.751.475-.718,2.9-4.315,4.178-3.392.707.512-.151,1.97-.412,2.5-1.129,2.278-2.6,4.422-3.9,6.608-3.8,6.414-7.164,13.068-10.9,19.52-.376.649-1.41,3.079-2.211,3.4-.449.18-2.275-.641-2.535-.25C.472,32.963.287,34.78.043,36c-.011.053-.085.311-.011.356s.331-.209.374-.247c1.329-1.163,2.182-2.718,3.4-3.935" transform="translate(146.477 147.629)" fill="none" stroke="#191919" stroke-miterlimit="10" stroke-width="1.321"/>
    <path id="路径-56" data-name="路径" d="M.017.009C-.046-.043.085.156.125.227c.087.152.183.3.283.438a11.707,11.707,0,0,0,.878,1.094A17.773,17.773,0,0,0,4.45,4.575" transform="translate(27.191 142.191)" fill="none" stroke="#191919" stroke-miterlimit="10" stroke-width="1.321"/>
    <path id="路径-57" data-name="路径" d="M13.35,0c0,.042-.154.214-.178.252-.141.226-.255.47-.378.706-.455.877-.883,1.765-1.267,2.676C10.9,5.126,10.2,6.558,9.46,8a6.66,6.66,0,0,1-.938,1.753,4.748,4.748,0,0,1-1.877.532C5.2,10.609.682,10.133,0,9.571" transform="translate(45.652 144.385)" fill="none" stroke="#191919" stroke-miterlimit="10" stroke-width="1.321"/>
    <path id="路径-58" data-name="路径" d="M0,.283C1.857.34,3.764-.018,5.649,0a18.776,18.776,0,0,1,9.11,2.421A15.641,15.641,0,0,1,20.58,8.666a15.583,15.583,0,0,1,.863,1.727c.069.168.261.509.118.687-.175.218-.674.213-.919.239a9.059,9.059,0,0,1-2.86-.153c-.2-.044-1.021-.117-1.071-.4-.058-.332.335-.84.467-1.121a24.652,24.652,0,0,0,1.107-2.714c.058-.176.348-.7.3-.891" transform="translate(29.737 141.684)" fill="none" stroke="#191919" stroke-miterlimit="10" stroke-width="1.321"/>
    <path id="路径-59" data-name="路径" d="M1.594,0s-.253.23-.257.242C1.255.469,1.18.7,1.1.924.824,1.656.58,2.393.277,3.114.2,3.3.108,3.479.04,3.668A.3.3,0,0,0,.016,3.9c.072.142.349.171.482.19.463.065.928.087,1.388.181A2.526,2.526,0,0,0,3.2,4.39c.517-.185.3-.951.184-1.336a7.787,7.787,0,0,0-.418-1A6.6,6.6,0,0,0,1.985.431,2.849,2.849,0,0,0,1.594,0Z" transform="translate(47.043 148.322)" fill="#191919" stroke="#191919" stroke-miterlimit="10" stroke-width="1.321"/>
    <path id="路径-60" data-name="路径" d="M27.056,0a3.742,3.742,0,0,0-.283.317c-.2.23-.422.441-.637.658-.655.661-1.284,1.355-1.921,2.033a95.517,95.517,0,0,0-8.229,10.343C11.413,19.811,7.181,26.472,3.054,33.22A47.341,47.341,0,0,0,.6,37.738c-.224.476-.772,1.359-.547,1.917.154.382.878.743,1.23.941" transform="translate(9.805 142.085)" fill="none" stroke="#191919" stroke-miterlimit="10" stroke-width="1.321"/>
    <path id="路径-61" data-name="路径" d="M8.572.02c.059-.1-.082.221-.127.331a7.6,7.6,0,0,1-.339.705c-.367.684-.725,1.373-1.094,2.056A21.564,21.564,0,0,1,2.649,8.619a13.694,13.694,0,0,0-1.969,2C-.312,12.083-.047,14.095.4,15.691c.488,1.761,2.042,3.232,1.8,5.172A4.818,4.818,0,0,1,1.66,22.03" transform="translate(39.786 147.891)" fill="none" stroke="#191919" stroke-miterlimit="10" stroke-width="1.321"/>
    <path id="路径-62" data-name="路径" d="M0,11.325c.057-.134.286.061.431.073a6.791,6.791,0,0,0,.83.006c.942-.034,1.886-.139,2.82-.262a15.011,15.011,0,0,0,7.03-2.825,18.708,18.708,0,0,0,2.607-2.3,19.385,19.385,0,0,0,2.4-3.575,5.759,5.759,0,0,1,1.3-1.882A5.751,5.751,0,0,1,21.27.136C21.961.258,23.691.5,23.947,1.4" transform="translate(20.628 152.406)" fill="none" stroke="#191919" stroke-miterlimit="10" stroke-width="1.321"/>
    <path id="路径-63" data-name="路径" d="M5.6,10.424c-.133-.019.245-.117.351-.2a4.813,4.813,0,0,0,.579-.549,7.491,7.491,0,0,0,1.253-1.98,9.987,9.987,0,0,0,.853-5.868C8.5,1.166,8.085.093,7.289.006c-1.057-.115-1.7,1.36-1.97,2.14A11.169,11.169,0,0,0,5.2,7.606a7.817,7.817,0,0,0,.428,2.081c.339.7,2.637.251,3.269.3a6.258,6.258,0,0,1,1.079.172,8.1,8.1,0,0,1-1.048-.065,14.9,14.9,0,0,0-2.774.119c-.148.022-.849.048-.926.222-.051.114.592.248.647.264a3.072,3.072,0,0,1,1.35.7,1.128,1.128,0,0,1,.294,1.214,1.561,1.561,0,0,1-.252.438c-.047.057-.2.215-.149.163a1.57,1.57,0,0,0,.384-1.121c-.173-1.694-2.455-.908-3.386-.536-.143.057-.913.449-1.058.333-.092-.074.206-.118.308-.178.169-.1.337-.2.5-.3.431-.272,1.8-1.014,1.685-1.678-.06-.338-.636-.6-.9-.75a9.692,9.692,0,0,0-3.15-1.132C1.347,7.816.055,7.716,0,7.526c-.039-.139,1.47.071,1.546.088A7.394,7.394,0,0,1,5.414,9.471c1.205,1.371-1.416,2.407-1.2,3.7,0,.026,1.167.557,1.283.675a4.635,4.635,0,0,1,1.167,2.588" transform="translate(11.269 158.563)" fill="none" stroke="#191919" stroke-miterlimit="10" stroke-width="1.321"/>
    <path id="路径-64" data-name="路径" d="M.034,18.471c-.108-.092.074-.943.083-1.052.1-1.194.2-2.389.348-3.579A46.529,46.529,0,0,1,2.984,3.166C3.467,1.9,4.259.124,5.825.005c1.268-.1,2.067,1.109,2.45,2.145A8.86,8.86,0,0,1,7.785,9.2a4.106,4.106,0,0,1-.51.781c-1.524,1.789-2.4-1.048-2.493-2.232" transform="translate(109.613 7.482)" fill="none" stroke="#191919" stroke-miterlimit="10" stroke-width="1.321"/>
    <path id="路径-65" data-name="路径" d="M.019.675C-.126.5.6.122.679.092A1.551,1.551,0,0,1,2.3.479c1.576,1.537,1.412,4.415.715,6.309C2.771,7.466,2.4,8.4,1.672,8.7" transform="translate(118.265 9.207)" fill="none" stroke="#191919" stroke-miterlimit="10" stroke-width="1.321"/>
    <path id="路径-66" data-name="路径" d="M0,.8A1.689,1.689,0,0,1,.1.389,1,1,0,0,1,.865,0c.691-.04,1,.676,1.17,1.23.6,1.925.191,5.094-1.675,6.261" transform="translate(121.956 11.872)" fill="none" stroke="#191919" stroke-miterlimit="10" stroke-width="1.321"/>
    <path id="路径-67" data-name="路径" d="M1.3,15.614c-.014.008.274-1.332.31-1.476.272-1.083.519-2.171.8-3.252q.308-1.2.612-2.392c.178-.7.354-1.4.556-2.088.153-.523.323-1.041.506-1.554q.241-.679.5-1.351C5.11,2.16,6.861-1.062,8.843.351A1.942,1.942,0,0,1,9.41,2.037,17.185,17.185,0,0,1,8.555,6.57,39.231,39.231,0,0,1,5.3,14c-.322.6-.625,1.206-.943,1.806-.061.115-.173.518-.291.6-.021.014-1.027-.519-1.163-.539A2.593,2.593,0,0,0,.613,17.11c-.607.955-.941,2.544-.144,3.472A4.448,4.448,0,0,0,2.435,21.7" transform="translate(123.689 0.205)" fill="none" stroke="#191919" stroke-miterlimit="10" stroke-width="1.321"/>
    <path id="路径-68" data-name="路径" d="M7.367,0a3.167,3.167,0,0,1,.952,1.439,9.973,9.973,0,0,1,.527,4.117c-.386,4.107-3.385,6.775-6.378,9.226A16.371,16.371,0,0,1,0,16.976" transform="translate(121.533 15.294)" fill="none" stroke="#191919" stroke-miterlimit="10" stroke-width="1.321"/>
    <path id="路径-69" data-name="路径" d="M1.794,0c.173.141-.172.415-.215.634-.1.494-.178.991-.263,1.487C.981,4.089.662,6.06.277,8.018c-.085.433-.17.867-.237,1.3-.006.036-.074.329-.018.352.1.044.367-.514.394-.567.345-.659.684-1.326,1-2s.605-1.326.879-2C2.71,4.082,3.07,3.045,3.5,2.031" transform="translate(121.821 19.975)" fill="none" stroke="#191919" stroke-miterlimit="10" stroke-width="1.321"/>
    <path id="路径-70" data-name="路径" d="M0,4.9C1.168,3.2,2.2,1.224,3.966,0" transform="translate(118.255 22.535)" fill="none" stroke="#191919" stroke-miterlimit="10" stroke-width="1.321"/>
    <path id="路径-71" data-name="路径" d="M13.09,0,0,42.556" transform="translate(21.626 45.015)" fill="none" stroke="#191919" stroke-miterlimit="10" stroke-width="1.321"/>
    <path id="路径-72" data-name="路径" d="M0,38.5,18.172,0" transform="translate(34.716 5.562)" fill="none" stroke="#191919" stroke-miterlimit="10" stroke-width="1.321"/>
  </g>
  <rect id="矩形_576" data-name="矩形 576" width="510" height="510" fill="none"/>
</svg>
