<svg xmlns="http://www.w3.org/2000/svg" width="80.25" height="80.25" viewBox="0 0 80.25 80.25">
  <path id="路径_706" data-name="路径 706" d="M70.314,38.023H64.582V22.737a7.665,7.665,0,0,0-7.643-7.643H41.654V9.554a9.554,9.554,0,1,0-19.107,0v5.732H7.643A7.665,7.665,0,0,0,0,22.929V37.45H5.732a10.318,10.318,0,0,1,0,20.636H0V72.607A7.665,7.665,0,0,0,7.643,80.25H22.164V74.518a10.318,10.318,0,1,1,20.636,0V80.25H57.321a7.665,7.665,0,0,0,7.643-7.643V57.321H70.7a9.581,9.581,0,0,0,9.554-9.554C79.677,42.227,75.473,38.023,70.314,38.023Z" fill="#ff7200"/>
</svg>
