<svg xmlns="http://www.w3.org/2000/svg" width="535.949" height="115.613" viewBox="0 0 535.949 115.613">
  <path id="路径_722" data-name="路径 722" d="M223.522,898.16l-23.3,19.8,23.939,26.322-4.873,6.027-34.637-38.13.106,23.616a24.627,24.627,0,0,1-1.324,8.364,17.5,17.5,0,0,1-3.707,6.211,17.183,17.183,0,0,1-5.561,3.936,16.745,16.745,0,0,1-6.885,1.414v-8.36a10.281,10.281,0,0,0,7.309-3.137q2.967-3.014,2.966-8.426v-7.38a69.81,69.81,0,0,1-9.215,6.826,99.411,99.411,0,0,1-11.177,6.032,132.8,132.8,0,0,1-12.4,4.985,105.787,105.787,0,0,1-12.87,3.567l-1.373-8.244a101.04,101.04,0,0,0,14.3-4.059,121.011,121.011,0,0,0,13.4-5.781,72.283,72.283,0,0,0,11.281-7.011,41.271,41.271,0,0,0,7.944-7.749V908.25a14.43,14.43,0,0,0-.424-3.69,67.143,67.143,0,0,1-8.58,8.672,87.631,87.631,0,0,1-10.857,7.872,97.416,97.416,0,0,1-12.394,6.456A79.641,79.641,0,0,1,132,931.989l-1.589-8.118a78.755,78.755,0,0,0,12.764-4.366,90.2,90.2,0,0,0,11.864-6.273,76.412,76.412,0,0,0,10.116-7.564,52.543,52.543,0,0,0,7.521-8.118,15.661,15.661,0,0,0-8.262-3.69,78.121,78.121,0,0,1-15.094,10.393A85.507,85.507,0,0,1,132.11,911.2l-1.7-8.118a89.189,89.189,0,0,0,9.851-3.567,83.383,83.383,0,0,0,9.374-4.736A70.886,70.886,0,0,0,158.061,889a47.46,47.46,0,0,0,6.885-6.7H134.758l-1.575-8.364h87.374V882.3H174.263q-.741,1.23-1.589,2.4t-1.695,2.4a19.931,19.931,0,0,1,11.762,11.562l12.181,13.4L219.285,891.4Zm-6.78-28.9v-6.888a4.952,4.952,0,0,0-1.218-3.444,3.9,3.9,0,0,0-3.019-1.353h-69.8a3.742,3.742,0,0,0-2.966,1.353,5.09,5.09,0,0,0-1.165,3.444v6.888h-7.211v-6.888a14.435,14.435,0,0,1,.9-5.1,13.761,13.761,0,0,1,2.436-4.182,11.683,11.683,0,0,1,3.6-2.829,9.6,9.6,0,0,1,4.4-1.045h31.354v-8.364h7.2v8.364H212.5a9.6,9.6,0,0,1,4.4,1.045,12.305,12.305,0,0,1,3.654,2.829,13.166,13.166,0,0,1,2.489,4.182,14.39,14.39,0,0,1,.9,5.1v6.888Zm40.7,83.394a11.358,11.358,0,0,1-5.19-1.23,13.681,13.681,0,0,1-4.237-3.321,15.333,15.333,0,0,1-2.807-4.92,17.875,17.875,0,0,1-1.01-6.023V856.836a17.869,17.869,0,0,1,1.006-6.027,15.332,15.332,0,0,1,2.807-4.92,13.681,13.681,0,0,1,4.237-3.321,11.358,11.358,0,0,1,5.19-1.23h63.555a11.355,11.355,0,0,1,5.19,1.23,13.658,13.658,0,0,1,4.237,3.321,16.1,16.1,0,0,1,2.86,4.92,17.029,17.029,0,0,1,1.059,6.027V937.16a17.029,17.029,0,0,1-1.059,6.027,16.1,16.1,0,0,1-2.86,4.92,13.657,13.657,0,0,1-4.237,3.321,11.355,11.355,0,0,1-5.19,1.23ZM321,944.29a5.539,5.539,0,0,0,4.34-2.092,7.467,7.467,0,0,0,1.8-5.043V856.836a7.466,7.466,0,0,0-1.8-5.043,5.54,5.54,0,0,0-4.343-2.091H257.439a5.439,5.439,0,0,0-4.237,2.091,7.471,7.471,0,0,0-1.8,5.043V937.16a7.472,7.472,0,0,0,1.8,5.043,5.439,5.439,0,0,0,4.237,2.091Zm.106-8.856h-9.215a11.358,11.358,0,0,1-5.19-1.23,13.68,13.68,0,0,1-4.237-3.321,16.121,16.121,0,0,1-2.86-4.92,17.074,17.074,0,0,1-1.059-6.027V893.613h-18.96a84.2,84.2,0,0,1-4.925,24.293,58.831,58.831,0,0,1-11.917,19l-4.877-6.146a52.366,52.366,0,0,0,10.116-16.236,71.657,71.657,0,0,0,4.29-20.91H258.181V885.25h62.072v8.364H305.741v26.322a7.472,7.472,0,0,0,1.8,5.043,5.542,5.542,0,0,0,4.343,2.091H321.1Zm-3.284-64.821h-57.1v-8.364h57.093Zm36.7-24.724h89.832l-2.573,8.364h-39.5V940.6h42.073l1.875,8.361H352.275l2.248-8.361H395.7V854.253h-38.98Zm151.119-.123L501.4,856.344H556.38v8.487H513.9v22.386h40.251v8.364H513.9v26.2h40.251v8.364H513.9v21.032h-7.2V864.831H490.071L499.18,842.2ZM460.2,869.136l21.079-24.476V951.054h-7.2V864.831l-8.8,10.209ZM665.727,952.9H570.819v-8.364h43.853V929.529h-40.04V921.16h40.039V908.619H579.4l4.978-26.691h-9.533V873.56H661.7v8.364H591.686L588.4,900.255h58.47a3.9,3.9,0,0,0,3.019-1.353,4.945,4.945,0,0,0,1.218-3.442v-6.519h7.2v6.519a14.39,14.39,0,0,1-.9,5.1,13.164,13.164,0,0,1-2.489,4.182,12.305,12.305,0,0,1-3.654,2.829,9.6,9.6,0,0,1-4.4,1.046h-25V921.16h40.145v8.364H621.875v15.011h43.853ZM621.875,840.108v9.963h31.142a11.354,11.354,0,0,1,5.19,1.23,13.656,13.656,0,0,1,4.237,3.321,16.1,16.1,0,0,1,2.86,4.92,17.029,17.029,0,0,1,1.059,6.027v4.182h-7.309v-4.182a7.6,7.6,0,0,0-1.748-5.043,5.386,5.386,0,0,0-4.29-2.091H583.53a5.389,5.389,0,0,0-4.29,2.091,7.614,7.614,0,0,0-1.748,5.043v4.182h-7.309v-4.182a17.074,17.074,0,0,1,1.059-6.027,16.121,16.121,0,0,1,2.86-4.92,13.68,13.68,0,0,1,4.237-3.321,11.358,11.358,0,0,1,5.19-1.23h31.142v-9.963Z" transform="translate(-130.414 -840.108)" fill="#030504"/>
</svg>
