<svg xmlns="http://www.w3.org/2000/svg" width="92.115" height="95.987" viewBox="0 0 92.115 95.987">
  <g id="组_577" data-name="组 577" transform="translate(-261.018 -1330.471)">
    <path id="路径_692" data-name="路径 692" d="M-2556.28,10733.416s-6.334,5.1-9.452,6.117-7.437,2.466-8.963,1.916a4.981,4.981,0,0,0-3.052,0v22.593s.159,7.733,2.418,10.736,7.757,8.432,19.642,14.257,8.7,5.24,8.7,5.24l25.155-15.348a19.838,19.838,0,0,0,5.092-12.343c.179-7.353,0-25.136,0-25.136s-8.226.625-13.765-2.889-8.515-5.145-8.515-5.145Z" transform="translate(2854.318 -9367.833)" fill="#3e58f7"/>
    <path id="路径_691" data-name="路径 691" d="M-2574.817,10648.057l-36.036,14.054s-6.492,2.211-4.1,4.284,39.766,17.639,39.766,17.639,3.517,2.43,9.1,0,30.066-12.154,30.066-12.154,3.681-1.368,4.042,2.118a69.449,69.449,0,0,1,0,9.068l-2.454,2.382a2.065,2.065,0,0,0,0,2.329,44.94,44.94,0,0,0,3.823,3.5,1.693,1.693,0,0,0,2.059,0c.981-.822,4.286-3.5,4.286-3.5s.693-1.657,0-2.329-2.46-2.382-2.46-2.382v-13.9s.035-1.612,1.323-2.03,2.25-1.467,2-1.99-41.409-17.092-41.409-17.092a10.938,10.938,0,0,0-5.36-1.07A10.91,10.91,0,0,0-2574.817,10648.057Z" transform="translate(2876.5 -9316.5)" fill="#77a4ff"/>
    <path id="路径_693" data-name="路径 693" d="M-2526.178,10760.24l-11.9,19.385h16.865l-6.182,9.615,7.405,3.785,11.591-19.706-16.309-.562,4.718-8.2Z" transform="translate(2830.174 -9384.288)" fill="#fff"/>
  </g>
</svg>
