<svg id="组件_26_1" data-name="组件 26 – 1" xmlns="http://www.w3.org/2000/svg" xmlns:xlink="http://www.w3.org/1999/xlink" width="376" height="584" viewBox="0 0 376 584">
  <defs>
    <clipPath id="clip-path">
      <rect id="矩形_561" data-name="矩形 561" width="376" height="584" rx="20" transform="translate(-4176 10231)" opacity="0.6"/>
    </clipPath>
  </defs>
  <g id="蒙版组_2" data-name="蒙版组 2" transform="translate(4176 -10231)" clip-path="url(#clip-path)">
    <g id="组_576" data-name="组 576" transform="translate(-4529.968 8898.678)">
      <path id="路径_692" data-name="路径 692" d="M-2446.791,10733.416s-38.639,31.129-57.659,37.316-45.371,15.043-54.679,11.686-18.619,0-18.619,0v137.826s.97,47.174,14.752,65.494,47.321,51.438,119.821,86.969,53.089,31.971,53.089,31.971l153.455-93.625s29.97-30.441,31.064-75.3,0-153.338,0-153.338-50.183,3.814-83.969-17.613-51.948-31.389-51.948-31.389Z" transform="translate(2933.645 -9188.755)" fill="#3e58f7"/>
      <path id="路径_691" data-name="路径 691" d="M-2367.412,10653.588l-219.832,85.736s-39.6,13.486-25.009,26.135,242.583,107.6,242.583,107.6,21.453,14.828,55.5,0,183.414-74.145,183.414-74.145,22.453-8.344,24.661,12.924,0,55.318,0,55.318l-14.972,14.533s-5.24,7.83,0,14.205,23.322,21.32,23.322,21.32,6.573,5.018,12.559,0,26.147-21.32,26.147-21.32,4.227-10.109,0-14.205-15.006-14.533-15.006-14.533v-84.773s.213-9.838,8.069-12.387,13.725-8.945,12.173-12.139-252.609-104.268-252.609-104.268a66.723,66.723,0,0,0-32.7-6.523C-2358.077,10648.063-2367.412,10653.588-2367.412,10653.588Z" transform="translate(2876.5 -9316.502)" fill="#77a4ff"/>
      <path id="路径_693" data-name="路径 693" d="M-2465.5,10760.24l-72.574,118.252h102.881l-37.711,58.652,45.174,23.1,70.708-120.213-99.491-3.432,28.783-50.008Z" transform="translate(2988.697 -9152.323)" fill="#fff"/>
    </g>
  </g>
  <rect id="矩形_577" data-name="矩形 577" width="376" height="584" opacity="0.6"/>
</svg>
