<svg id="组件_27_1" data-name="组件 27 – 1" xmlns="http://www.w3.org/2000/svg" xmlns:xlink="http://www.w3.org/1999/xlink" width="376" height="584" viewBox="0 0 376 584">
  <defs>
    <clipPath id="clip-path">
      <rect id="矩形_562" data-name="矩形 562" width="376" height="584" transform="translate(-4176 11246)" opacity="0.6"/>
    </clipPath>
  </defs>
  <g id="蒙版组_3" data-name="蒙版组 3" transform="translate(4176 -11246)" clip-path="url(#clip-path)">
    <g id="页面-1" transform="translate(-4266.266 11231.669)">
      <g id="A4" transform="translate(1.766 1.166)">
        <g id="编组-2">
          <path id="多边形" d="M322.522,13.02,510.51,121.562a88.5,88.5,0,0,1,44.256,76.652v217.07a88.5,88.5,0,0,1-44.256,76.652L322.522,600.477a88.539,88.539,0,0,1-88.512,0L46.022,491.935A88.5,88.5,0,0,1,1.766,415.284V198.213a88.5,88.5,0,0,1,44.256-76.652L234.01,13.02A88.539,88.539,0,0,1,322.522,13.02Z" transform="translate(-1.766 -1.166)" fill="#f3f3f3" stroke="#5093ff" stroke-width="2" fill-rule="evenodd"/>
          <path id="多边形备份" d="M269.017,25.02,394.041,97.208A88.5,88.5,0,0,1,438.3,173.86V318.224a88.5,88.5,0,0,1-44.256,76.652L269.017,467.064a88.539,88.539,0,0,1-88.512,0L55.481,394.876a88.5,88.5,0,0,1-44.256-76.652V173.86A88.5,88.5,0,0,1,55.481,97.208L180.5,25.02A88.539,88.539,0,0,1,269.017,25.02Z" transform="translate(48.578 62.702)" fill="#fff" stroke="#ececec" stroke-width="1" fill-rule="evenodd"/>
          <g id="编组" transform="translate(83.669 175.975)">
            <path id="形状结合" d="M195.173,29a116.224,116.224,0,0,1,79.048,30.745q-51.647,46.611-68.287,68.825c-18.234,24.328-26.952,49.08-26.952,73.181q0,22.779,14.465,54.846L84.918,256.6C46.068,255.162,15,223.727,15,185.148c0-38.054,30.221-69.153,68.325-71.335C96.349,65.006,141.49,29,195.173,29Z" transform="translate(-15 -29)" fill="#37d4ff" fill-rule="evenodd"/>
            <path id="形状结合备份" d="M195.173,29a116.224,116.224,0,0,1,79.048,30.745q-51.647,46.611-68.287,68.825c-18.234,24.328-26.952,49.08-26.952,73.181q0,22.779,14.465,54.846L84.918,256.6C46.068,255.162,15,223.727,15,185.148c0-38.054,30.221-69.153,68.325-71.335C96.349,65.006,141.49,29,195.173,29Z" transform="translate(-15 -29)" fill="#37d1ff" fill-rule="evenodd"/>
            <path id="路径-2" d="M124.8,37.425Q73.642,85.06,61.269,104.536A87.646,87.646,0,0,0,47,153.717a81.923,81.923,0,0,0,10.565,39.42,181.853,181.853,0,0,0,13.953,20.889h65.24c23.886,0,55.6-15.673,72.732-40.817s17.134-56.913,10.173-80.856-26.984-40.577-47.114-48.8Q152.424,35.335,124.8,37.425Z" transform="translate(155.314 13.577)" fill="#259ffe" fill-rule="evenodd"/>
          </g>
          <path id="路径" d="M25.8,114.33q7.71-36.322,42.3-61.9c34.6-25.58,72.928-28.033,103.161-18.215q30.233,9.806,46.2,26.187-47.654,42.382-68.882,72.251t-25.966,54.9Z" transform="translate(126.14 146.332)" fill="#4181ff" fill-rule="evenodd"/>
        </g>
      </g>
    </g>
  </g>
  <rect id="矩形_578" data-name="矩形 578" width="376" height="584" opacity="0.6"/>
</svg>
