<svg xmlns="http://www.w3.org/2000/svg" width="93.478" height="103.423" viewBox="0 0 93.478 103.423">
  <g id="页面-1" transform="translate(-0.766 -0.004)">
    <g id="A4" transform="translate(1.766 1.166)">
      <g id="编组-2">
        <path id="多边形" d="M54.826,3.127l31.1,17.955a14.639,14.639,0,0,1,7.321,12.68V69.67a14.639,14.639,0,0,1-7.321,12.68L54.826,100.3a14.646,14.646,0,0,1-14.642,0L9.087,82.349A14.639,14.639,0,0,1,1.766,69.67V33.762a14.639,14.639,0,0,1,7.321-12.68l31.1-17.955A14.646,14.646,0,0,1,54.826,3.127Z" transform="translate(-1.766 -1.166)" fill="#f3f3f3" stroke="#5093ff" stroke-width="2" fill-rule="evenodd"/>
        <path id="多边形备份" d="M53.869,15.127,74.551,27.068a14.639,14.639,0,0,1,7.321,12.68V63.629a14.639,14.639,0,0,1-7.321,12.68L53.869,88.25a14.646,14.646,0,0,1-14.642,0L18.546,76.309a14.639,14.639,0,0,1-7.321-12.68V39.748a14.639,14.639,0,0,1,7.321-12.68L39.227,15.127A14.646,14.646,0,0,1,53.869,15.127Z" transform="translate(-1.332 -0.616)" fill="#fff" stroke="#ececec" stroke-width="1" fill-rule="evenodd"/>
        <g id="编组" transform="translate(13.841 29.11)">
          <path id="形状结合" d="M44.8,29a19.226,19.226,0,0,1,13.076,5.086q-8.543,7.71-11.3,11.385a20.145,20.145,0,0,0-4.458,12.106,22.869,22.869,0,0,0,2.393,9.073H26.566A11.817,11.817,0,0,1,26.3,43.03,19.086,19.086,0,0,1,44.8,29Z" transform="translate(-15 -29)" fill="#37d4ff" fill-rule="evenodd"/>
          <path id="形状结合备份" d="M44.8,29a19.226,19.226,0,0,1,13.076,5.086q-8.543,7.71-11.3,11.385a20.145,20.145,0,0,0-4.458,12.106,22.869,22.869,0,0,0,2.393,9.073H26.566A11.817,11.817,0,0,1,26.3,43.03,19.086,19.086,0,0,1,44.8,29Z" transform="translate(-15 -29)" fill="#37d1ff" fill-rule="evenodd"/>
          <path id="路径-2" d="M59.869,37.07q-8.462,7.88-10.509,11.1A14.5,14.5,0,0,0,47,56.307a13.552,13.552,0,0,0,1.748,6.521,30.082,30.082,0,0,0,2.308,3.455H61.848c3.951,0,9.2-2.593,12.031-6.752s2.834-9.415,1.683-13.375a13.067,13.067,0,0,0-7.794-8.072A17.3,17.3,0,0,0,59.869,37.07Z" transform="translate(-13.533 -28.633)" fill="#259ffe" fill-rule="evenodd"/>
        </g>
        <path id="路径" d="M25.8,43.015a17.012,17.012,0,0,1,7-10.24A18.714,18.714,0,0,1,49.86,29.762,18.427,18.427,0,0,1,57.5,34.094,77.312,77.312,0,0,0,46.108,46.045a23.8,23.8,0,0,0-4.3,9.082Z" transform="translate(-0.664 0.104)" fill="#4181ff" fill-rule="evenodd"/>
      </g>
    </g>
  </g>
</svg>
