<?xml version="1.0" encoding="UTF-8"?>
<svg width="263px" height="70px" viewBox="0 0 263 70" version="1.1" xmlns="http://www.w3.org/2000/svg" xmlns:xlink="http://www.w3.org/1999/xlink">
    <title>编组 3</title>
    <g id="Vega" stroke="none" stroke-width="1" fill="none" fill-rule="evenodd">
        <g id="iPhone-X备份" transform="translate(-49.000000, -608.000000)">
            <g id="编组-3" transform="translate(51.000000, 608.000000)">
                <text id="NCUHOME" font-family="DINCondensed-Bold, DIN Condensed" font-size="54" font-style="condensed" font-weight="bold" letter-spacing="1.10297872">
                    <tspan x="76" y="52" fill="#FD675A">N</tspan>
                    <tspan x="101.078979" y="52" fill="#31A0FE">C</tspan>
                    <tspan x="124.159957" y="52" fill="#FF9F11">U</tspan>
                    <tspan x="148.266936" y="52" fill="#3C3C3C">HOME</tspan>
                </text>
                <g id="编组-2">
                    <path d="M35.437606,61.1463415 L15.6521739,50.0712376 L17.8931791,24.9358535 L60.0474308,21.0365854 L60.0474308,47.5039662 L53.9003758,51.1236253 L53.1644434,39.2671273 C52.8118436,37.4084822 52.1500829,36.4791597 51.1791613,36.4791597 C49.7227788,36.4791597 45.4885273,37.1120301 44.3697409,40.6792445 C43.6238833,43.0573874 43.517966,48.2912516 44.0519891,56.3808371 L35.437606,61.1463415 Z" id="路径-24" fill="#FFF4D5"></path>
                    <path d="M60.0474308,20.195122 L60.0474308,46.9852953 L52.9201305,51.363055 C52.9201305,43.9452626 52.9201305,39.8718194 52.9201305,39.1427253 C52.9201305,38.0490843 51.220105,35.2126271 47.9111091,36.6039649 C45.7051118,37.5315235 44.3533037,39.3165434 43.855685,41.9590246 L43.855685,56.3537411 L36.4268775,61.1463415" id="路径-23" stroke="#FFBB00" stroke-width="2.835" stroke-linecap="round" stroke-linejoin="round"></path>
                    <path d="M0.280950581,40.7166865 L23.9214397,54.3697461 L47.7506133,40.5323806 L40.9666311,36.5480996 L28.8982378,43.2937958 C26.5223325,44.7171495 24.5517387,45.2451474 22.9864564,44.8777893 C20.638533,44.3267522 18.7339183,42.2778586 19.1929635,40.0093515 C19.6520087,37.7408445 21.5914917,36.9358764 23.1943983,35.9530993 C24.2630027,35.2979146 27.0531538,33.6497367 31.5648515,31.0085656 L24.1439728,26.7241193" id="路径-22" stroke="#FD675A" stroke-width="2.835" fill="#FFEEEC" stroke-linecap="round" stroke-linejoin="round" transform="translate(24.015782, 40.546933) rotate(-300.000000) translate(-24.015782, -40.546933) "></path>
                    <path d="M60.0474308,20.368954 L51.7857136,15.632882 C45.6078184,19.1240938 41.5668085,21.3742615 39.662684,22.3833851 C36.8064973,23.8970706 32.9859027,24.1933029 30.8481611,22.7632461 C28.7104195,21.3331893 28.7536632,18.6422499 30.8481611,17.1810885 C32.2444931,16.206981 36.1838902,13.9473534 42.6663526,10.4022056 L36,6.45121951 L11.9525692,20.0619297 L36,33.6585366" id="路径-22" stroke="#31A0FE" stroke-width="2.835" fill="#E5F3FF" stroke-linejoin="round"></path>
                    <line x1="36.1422925" y1="33.6585366" x2="60.0474308" y2="20.195122" id="路径-22" stroke="#FFBB00" stroke-width="2.835" stroke-linecap="round" stroke-linejoin="round"></line>
                    <line x1="36.1422925" y1="33.3780415" x2="36.1422925" y2="40.6707244" id="路径-25" stroke="#FD675A" stroke-width="2.835" stroke-linecap="round"></line>
                </g>
            </g>
        </g>
    </g>
</svg>