<svg xmlns="http://www.w3.org/2000/svg" width="1440" height="660" viewBox="0 0 1440 660">
  <g id="组件_35_1" data-name="组件 35 – 1" style="isolation: isolate">
    <path id="矩形" d="M0,0H1440V660H0Z" fill="#fafcff"/>
    <g id="设计" transform="translate(346.729 124.772)">
      <text id="DESIGN" transform="translate(30 153.829)" fill="rgba(0,0,0,0.7)" stroke="rgba(0,0,0,0.85)" stroke-miterlimit="10" stroke-width="1" font-size="72" font-family="SegoeUI, Segoe UI" letter-spacing="1.25em"><tspan x="0" y="78">DESIGN</tspan></text>
      <g id="图层1" transform="translate(184)">
        <path id="路径" d="M.027,33.362c-.178-.215.562.1.837.047a3.183,3.183,0,0,0,1.284-.837c1.361-1.134,2.571-2.416,3.875-3.611,3.8-3.48,7.314-7.34,11.375-10.516,4.9-3.83,9.78-7.725,15.358-10.538,2.628-1.325,5.507-1.852,8.163-3.061a16.579,16.579,0,0,0,4.454-2.818A1.957,1.957,0,0,0,46.018.772c.006-.064.053-.885.226-.759.616.448.99,2.249,1.275,2.92A34.639,34.639,0,0,1,49.98,9.986,5.042,5.042,0,0,1,50,12.723c-.074.135-.753.1-.882.12-.924.156-1.83.428-2.737.66A22.481,22.481,0,0,0,38.269,17.3C31.067,22.716,24.7,29.4,18.121,35.554c-1.988,1.859-3.584,4.215-5.859,5.714-.578.381-1.311,1.15-2.02,1.255-.536.08-1.984-2.486-2.3-2.891C6.023,37.2.027,33.362.027,33.362Z" transform="translate(36.142 367.627)" fill="#191919" stroke="#191919" stroke-miterlimit="10" stroke-width="1.95"/>
        <path id="路径-2" data-name="路径" d="M131.4.078c-.779-.73-8.731,3.87-9.413,4.255A228.012,228.012,0,0,0,92.371,24.288c-11.028,8.76-20.7,18.585-30.281,28.837-3.769,4.034-8.433,7.712-11.711,12.152-2.166,2.933-3.612,6.635-5.33,9.827-3.844,7.143-7.5,14.383-11.392,21.5C22.48,117.019,10.839,137.218,0,157.813" transform="translate(57.903 168.202)" fill="none" stroke="#191919" stroke-miterlimit="10" stroke-width="1.95"/>
        <path id="路径-3" data-name="路径" d="M0,38.561c4.651-2.034,15.313-8.484,21.549-11.672C37.9,18.534,54.708,10.92,69.559,0" transform="translate(153.66 187.397)" fill="none" stroke="#191919" stroke-miterlimit="10" stroke-width="1.95"/>
        <path id="路径-4" data-name="路径" d="M47.786,0c-2.523,1.965-8.443,18.264-10.337,21.726C29.452,36.341,11.636,71.781,0,82.733" transform="translate(93.952 242.624)" fill="none" stroke="#191919" stroke-miterlimit="10" stroke-width="1.95"/>
        <path id="路径-5" data-name="路径" d="M22.806,0c.244.254-.68.2-.991.365a8.037,8.037,0,0,0-1.6,1.148A27.084,27.084,0,0,0,16.4,6.031,77.644,77.644,0,0,0,7.388,22.62c-7.2,18.3-13.8,44.617,4.106,62.436" transform="translate(133.888 38.979)" fill="none" stroke="#191919" stroke-miterlimit="10" stroke-width="1.95"/>
        <path id="路径-6" data-name="路径" d="M.242.237s0,.007,0,.01" transform="translate(157.89 38.841)" fill="none" stroke="#191919" stroke-miterlimit="10" stroke-width="1.95"/>
        <path id="路径-7" data-name="路径" d="M.109.652C1.1.631,2.361-.105,3.616.013c6.138.579,12.69,5.041,16.519,9.581.479.568,4.314,5.412,4.063,6.168-.132.4-1.569.8-1.882,1a17.821,17.821,0,0,0-3.838,3.308,71.682,71.682,0,0,0-9.8,15.13C2.323,47.732-2.289,62.628,1.2,76.68c1.08,4.351,2.671,8.972,5.739,12.363" transform="translate(158.666 38.463)" fill="none" stroke="#191919" stroke-miterlimit="10" stroke-width="1.95"/>
        <path id="路径-8" data-name="路径" d="M0,0S22.588,22.947,31.952,47.187c11.526,29.838,12.057,63.587,12.34,71.689.132,3.8.153,14.824.383,14.926.45.2,6.656-1.74,6.656-1.74a32.637,32.637,0,0,0,1.332-5.045c1.186-9.814-.33-20.611-1.973-30.281-1.617-9.518-9.659-39.547-11.85-45.058-1.873-4.712-9.854-19.821-11.85-22.377-2.312-2.961-4.217-6.242-6.543-9.2C17.153,15.908,4.55.32,0,0Z" transform="translate(250.86 92.201)" fill="#191919" stroke="#191919" stroke-miterlimit="10" stroke-width="1.95"/>
        <path id="路径-9" data-name="路径" d="M28.23,4.8c.08.138-.269-.172-.39-.276-.289-.25-.538-.547-.819-.8A11.591,11.591,0,0,0,24.44,1.926,16.514,16.514,0,0,0,15.083.059C7.056.633-.511,8.007.027,16.406c.321,5.012,5.96,6.615,10.1,6.279,1.639-.133,3.9-.731,5.528-.348.182.043.108.252.091.384a10.931,10.931,0,0,0,.062,3.952A6.571,6.571,0,0,0,21.7,31.491c1.833.153,4.091-.049,5.558-1.276.681-.569,1.307-1.888,2.077-2.274a5.893,5.893,0,0,1,.555.946,3.6,3.6,0,0,0,1.482,1.476,11.729,11.729,0,0,0,6.906.856A9.292,9.292,0,0,0,42.7,29.088c.151-.126,1.871-1.906,2.052-1.725.579.579.036,3.628.066,4.327.111,2.535-2.658,8.15-1.549,7.793a8.029,8.029,0,0,1,3.093.249c1.444.38.52,3.094-.176,3.9-3.2,3.727-3.751,3.034-6.788,4.856-1.055.633-4.644,5.835-4.713,6.95s2.413,1.6,3.118,1.765c3.657.871,6.9-.215,10.147-1.929,4.675-2.469,9.6-6.287,12.171-10.992a41,41,0,0,0,3.691-11.543,31.35,31.35,0,0,0-1.715-18.25C58.311,5.138,48.472,2.253,45.72,2.013a42.438,42.438,0,0,0-17.988,2.4" transform="translate(216.099 26.321)" fill="#191919" stroke="#191919" stroke-miterlimit="10" stroke-width="1.95"/>
        <path id="路径-10" data-name="路径" d="M.091,21.8c-.308-.2.26-1.437.332-1.638a41.475,41.475,0,0,1,2.012-4.736c2.213-4.341,5.532-6.351,10.319-7C17.44,7.782,22.2,10.6,26.035,12.95c2.367,1.452,5.1,3.454,8.044,3.031,2.407-.346,4.242-2.367,5.712-4.145,2.318-2.806,4.38-5.686,7.519-7.671,10.535-6.665,25.35-5.257,34.045,3.7,2.407,2.481,3.019,6.015,5.076,8.7,1.438,1.878,3.993,2.007,5.841,3.284,2.1,1.449,2.536,4.644,2.4,7-.177,2.994-1.76,5.729-3.341,8.2C88.043,40.18,83.66,47.382,77.451,49.284c-5.7,1.746-9.84-1.212-14.389-4.31-1.708-1.164-3.628-3.2-5.831-3.334-1.916-.118-3.7,1.5-5.247,2.414-3.074,1.821-6.575,4-10.2,4.241A22.012,22.012,0,0,1,29.8,45.231c-1.666-.927-3.212-2.376-5.022-3-2.136-.737-4.882.58-6.788-.653-1.646-1.065-1.436-3.466-3.123-4.508A10.086,10.086,0,0,0,10.36,35.96c-.646-.037-1.795.24-2.345-.188s-.536-1.614-.669-2.24A10.236,10.236,0,0,0,6.01,30.38c-1.287-2.171-2-5.191-3.516-7.144A8.061,8.061,0,0,0,.091,21.8Z" transform="translate(265.032 7.358)" fill="#191919" stroke="#191919" stroke-miterlimit="10" stroke-width="1.95"/>
        <path id="路径-11" data-name="路径" d="M0,0C.021-.01.114.529.126.557a3.384,3.384,0,0,0,.692.984A27.173,27.173,0,0,0,3.57,4.1,111,111,0,0,0,12.756,11.3a82.206,82.206,0,0,0,24.956,11.58c3.325.886,7.406,2.1,10.9,1.58,2.244-.331,4.531-2.033,6.534-3,1.481-.712,2.957-1.433,4.45-2.119a6.113,6.113,0,0,0,2.055-1.061c.1-.114-4.564-1.186-6.052-1.758-3.764-1.445-24.19-5.706-29.4-7.844C19.514,5.934,11.55,2.883,4.623.8A37.645,37.645,0,0,0,0,0Z" transform="translate(126.357 148.873)" fill="#191919" stroke="#191919" stroke-miterlimit="10" stroke-width="1.95"/>
        <path id="路径-12" data-name="路径" d="M152.8,0c.723.045,2.874,9.773-13.942,26.362-33.531,33.079-83.564,51.7-83.564,51.7s-9.994,22-14.11,29.843C28.076,132.888,15.658,157.981,0,181.467" transform="translate(96.939 161.312)" fill="none" stroke="#191919" stroke-miterlimit="10" stroke-width="2.425"/>
        <path id="路径-13" data-name="路径" d="M74.544,0c0-.009-.968.65-1.077.771-.576.635-1.174,1.248-1.765,1.869-1.911,2.01-3.847,4-5.742,6.027C60.593,14.4,54.667,20.677,47.751,24.541c-8.867,4.953-20.025,12.064-30.2,12.753a58.83,58.83,0,0,1-12.62-.445C3.887,36.646.4,35.027.056,35.372c-.424.424,1.685,2.583,2.116,3,5.526,5.3,15.95,11.58,18.94,12.369,3.717.981,9.375,1.979,12.972.3,4.085-1.906,5.541-5.935,7.787-9.495A89.456,89.456,0,0,1,52.746,27.409c5.769-5.989,17.527-15.725,20.778-23.19A23.472,23.472,0,0,0,74.544,0Z" transform="translate(165.322 92.134)" fill="#191919" stroke="#191919" stroke-miterlimit="10" stroke-width="1.95"/>
        <path id="路径-14" data-name="路径" d="M6.869,0c.315.591-.719,1.132-1.04,1.719a61.332,61.332,0,0,0-2.74,5.925Q2.42,9.249,1.886,10.9c-1.125,3.468-3.819,10.93.408,13.437,2.769,1.642,7.215.883,10.255.684" transform="translate(233.245 53.319)" fill="none" stroke="#191919" stroke-miterlimit="10" stroke-width="1.95"/>
        <path id="路径-15" data-name="路径" d="M1,.018c-.085-.119.243.391.266.433.2.371.407.74.58,1.127A8.991,8.991,0,0,1,2.625,5a20.525,20.525,0,0,1-.637,5.131c-.444,1.91-3.326,5.009-1.235,5.741,1.1.385,9.865-1.444,10.772-2.653.443-.59.1-2.774.16-3.477A23.158,23.158,0,0,1,13.41,2.729" transform="translate(238.767 79.111)" fill="none" stroke="#191919" stroke-miterlimit="10" stroke-width="1.95"/>
        <path id="路径-16" data-name="路径" d="M33.245,0S23.115,8.977,20.652,11.58c-4.893,5.173-9.468,10.6-14.293,15.829C4.341,29.6.711,33,.06,36.068c-.717,3.38,5.159,7.921,7.147,10.054,8.145,8.741,16.333,17.308,24.231,26.3A199.243,199.243,0,0,0,46.327,87.63c1.723,1.582,4.13,4.38,6.749,3.847,1.882-.384,13.447-13.6,17.525-18.814,4.114-5.257,8.23-10.46,12.66-15.456,1.5-1.694,5.08-4.779,5.189-7.292.2-4.632-9.945-11.516-13.247-14.075C67.187,29.626,40.88,3.524,33.245,0Z" transform="translate(213.567 283.759)" fill="#191919" stroke="#191919" stroke-miterlimit="10" stroke-width="1.95"/>
        <path id="路径-17" data-name="路径" d="M2.781.347A4.149,4.149,0,0,0,.057,5.083,4.7,4.7,0,0,0,4.8,8.84c2.333.05,3.3-1.2,3.737-3.416C8.93,3.425,7.517-1.315,2.781.347Z" transform="translate(266.597 308.024)" fill="none" stroke="#fff" stroke-miterlimit="10" stroke-width="1.95"/>
        <path id="路径-18" data-name="路径" d="M0,0C.012-.013,1.268,1.4,1.34,1.468c.95.943,1.874,1.914,2.852,2.828,2.962,2.768,6.076,5.4,9.2,7.979A247.654,247.654,0,0,1,41.033,39.5c3.272,3.68,9.539,12.233,13.9,14.863" transform="translate(235.67 293.623)" fill="none" stroke="#fff" stroke-miterlimit="10" stroke-width="1.95"/>
        <path id="路径-19" data-name="路径" d="M0,20.378s4.676,7.7,5.092,7.667c.734-.057,6.342-4.278,7.08-4.787,5.849-4.03,11.9-11.585,13.524-12.46a31.129,31.129,0,0,1,11.724-4c3.609-.477,7.565-.576,7.565-.576a6.824,6.824,0,0,0,.8-3.732A8.564,8.564,0,0,0,45.443.115c-.207-.5-2.8.793-3.207.9a18.317,18.317,0,0,1-6.131.2C25.5.46,17.792,8.848,9.712,14.88,7.944,16.2,3.391,20.235,0,20.378Z" transform="translate(16.475 249.428)" fill="#191919" stroke="#191919" stroke-miterlimit="10" stroke-width="1.95"/>
        <path id="路径-20" data-name="路径" d="M0,0S2.566,15.172,2.9,16.587A25.13,25.13,0,0,0,3.637,19.2c.27-.217,3.3-5.586,3.4-5.6.632-.106,6.511-.186,6.5-.267C13.483,13.1,1.807,1.2,1.061.568.8.343.386-.024,0,0Z" transform="translate(58.291 59.296)" fill="#191919" stroke="#191919" stroke-miterlimit="10" stroke-width="1.95"/>
        <path id="路径-21" data-name="路径" d="M0,0S2.566,15.172,2.9,16.587A25.13,25.13,0,0,0,3.637,19.2c.27-.217,3.3-5.586,3.4-5.6.632-.106,6.511-.186,6.5-.267C13.483,13.1,1.807,1.2,1.061.568.8.343.386-.024,0,0Z" transform="translate(59.676 56.947)" fill="#fff" stroke="#191919" stroke-miterlimit="10" stroke-width="1.95"/>
        <g id="编组" transform="translate(277.463 245.933)">
          <path id="路径-22" data-name="路径" d="M1.6.008c0-.024-.031.015-.036.02C1.3.3,1.3.878,1.253,1.224,1.131,2.065,1.03,2.9.98,3.746.826,6.35.6,8.951.486,11.557.27,16.538,0,21.529,0,26.515,0,29.6,0,33.153,1.491,35.96c1.218,2.286,2.836,1.522,3.758-.565,1.334-3.016,1.48-6.512,1.989-9.734a17.453,17.453,0,0,1,.8-3.413,5.379,5.379,0,0,1,.495-1.04c.021-.032.4-.474.276-.412-1.16.58.763,4.051,1,4.656,2.092,5.281,3.872,8.762,4.713,14.558.8,5.547-.158,10.771-.628,16.29-.116,1.365-.683,4.962,1.122,5.6,2.865,1.009,4.974-4.233,5.649-6,.239-.626.46-1.259.657-1.9,3.286-10.712.2-19.369-1.592-29.823" transform="translate(0.153 3.975)" fill="none" stroke="#191919" stroke-miterlimit="10" stroke-width="1.95"/>
          <path id="路径-23" data-name="路径" d="M4.194,0a10.9,10.9,0,0,1,.448,2.454A49.419,49.419,0,0,1,5.2,8.307,52.532,52.532,0,0,1,3.961,21.049a19.211,19.211,0,0,1-2.177,6.3A16.681,16.681,0,0,1,0,29.336" transform="translate(21.917 27.788)" fill="none" stroke="#191919" stroke-miterlimit="10" stroke-width="1.95"/>
          <path id="路径-24" data-name="路径" d="M2.7,0c-.309.075.244.587.362.882a19.5,19.5,0,0,1,.674,2A32.2,32.2,0,0,1,4.867,9.425a20.236,20.236,0,0,1-1.075,8.726C2.865,20.54.95,23.507,0,25.881" transform="translate(25.729 24.991)" fill="none" stroke="#191919" stroke-miterlimit="10" stroke-width="1.95"/>
          <path id="路径-25" data-name="路径" d="M0,0C.272-.071,1.471,1.647,1.744,1.987,3.526,4.209,5.3,6.442,7.024,8.708a42.157,42.157,0,0,1,8.336,21.34c.272,3.021.473,6.989-1.094,9.77-.371.659-2.712,3.933-3.194,4.512" transform="translate(17.955 0.419)" fill="none" stroke="#191919" stroke-miterlimit="10" stroke-width="1.95"/>
        </g>
        <path id="路径-26" data-name="路径" d="M47.8,0c4.244,8.159,7.556,17.062,7.732,26.348.211,11.18-2.115,21.563-5.006,32.251-.305,1.128-1.75,9.3-2.607,9.812-1.494.9-18.338-2.307-21.336-2.981-7.855-1.767-25.3-3.946-26.55-14.435-.272-2.281,1.443-4.563,2.038-6.705" transform="translate(202.759 92.485)" fill="none" stroke="#191919" stroke-miterlimit="10" stroke-width="1.95"/>
        <path id="路径-27" data-name="路径" d="M0,91c-.091-.372,1.5-2.013,1.741-2.327,1.882-2.455,3.925-4.785,5.914-7.152,3.05-3.631,5.42-7.795,8.13-11.674,4.315-6.176,9-12.145,13.668-18.056,7.108-9,13.913-18.379,20.687-27.637C56.064,16.056,63.3,6.7,72.549,2.172,82.683-2.792,95.5,1.836,105.364,5.287c6.275,2.195,12.31,5.037,18.51,7.429,10.178,3.927,20.681,7.548,30.387,12.577,5.215,2.7,11.359,6.013,16.612,8.64" transform="translate(40.262 118.931)" fill="none" stroke="#191919" stroke-miterlimit="10" stroke-width="1.95"/>
        <path id="路径-28" data-name="路径" d="M45.785.116c-.176-.747-1.176,2.345-1.415,2.871C43.314,5.309,42.224,7.6,41.058,9.868c-3.523,6.857-7.4,13.537-11.284,20.194C22.731,42.135,15.59,53.9,6.184,64.313,3.547,67.232,0,69.442,0,70.2" transform="translate(80.979 148.819)" fill="none" stroke="#191919" stroke-miterlimit="10" stroke-width="1.95"/>
        <path id="路径-29" data-name="路径" d="M.005,0C-.152.138,3.236,5.569,3.391,5.838c3.525,6.146,7.158,12.275,10.458,18.544" transform="translate(260.646 106.52)" fill="none" stroke="#191919" stroke-miterlimit="10" stroke-width="1.95"/>
        <path id="路径-30" data-name="路径" d="M0,0C2.206,1.961,4.488,13.05,5.258,15.887c4.49,16.55,5.352,33.351,5.011,50.407" transform="translate(281.329 147.588)" fill="none" stroke="#191919" stroke-miterlimit="10" stroke-width="1.95"/>
        <path id="路径-31" data-name="路径" d="M0,0C-.12.283,2.9,7.49,3.148,8.239A227.957,227.957,0,0,1,9.2,32.491c4,19.38,5.8,40.35,6.049,60.114.067,5.309-3.049,23.1-1.715,25.88.9,1.875,9.7,1.925,11.483,1.862a57.476,57.476,0,0,0,6.987-.757c14.448-2.289,9.9-10.793,12.334-22.952" transform="translate(258.249 127.655)" fill="none" stroke="#191919" stroke-miterlimit="10" stroke-width="1.95"/>
        <path id="路径-32" data-name="路径" d="M0,3.989c.115.241,1.233.46,1.492.525a17.96,17.96,0,0,0,4.88.408C12.4,4.765,19.6,3.643,24.612,0" transform="translate(278.212 223.669)" fill="none" stroke="#191919" stroke-miterlimit="10" stroke-width="1.95"/>
        <path id="路径-33" data-name="路径" d="M4.647,0a4.452,4.452,0,0,0-1.7.536A6.634,6.634,0,0,0,.233,3.951,4.318,4.318,0,0,0,4.1,9.535,4.841,4.841,0,0,0,6.137,9.29C10.914,7.653,9.792.315,4.647,0Z" transform="translate(328.587 88.959)" fill="none" stroke="#191919" stroke-miterlimit="10" stroke-width="1.95"/>
        <path id="路径-34" data-name="路径" d="M.119,0c-1.1,3.979,5.793,15.668,8.056,19.169" transform="translate(175.167 99.443)" fill="none" stroke="#191919" stroke-miterlimit="10" stroke-width="1.95"/>
        <path id="路径-35" data-name="路径" d="M0,0A11.227,11.227,0,0,1,1,2.48" transform="translate(171.079 88.431)" fill="none" stroke="#191919" stroke-miterlimit="10" stroke-width="1.95"/>
        <path id="路径-36" data-name="路径" d="M.053,35.07c-.138.158.03-.419.069-.624.117-.6.25-1.194.407-1.783a30.281,30.281,0,0,1,1.794-4.714,42.3,42.3,0,0,1,8.125-11.57C20.265,6.135,31.573.191,45.731.008,67.5-.275,80,7.178,94.077,20.27c11.088,10.315,18.374,18.109,23.041,28.3" transform="translate(52.258 30.57)" fill="none" stroke="#191919" stroke-miterlimit="10" stroke-width="1.95"/>
        <path id="路径-37" data-name="路径" d="M1.033,0C.625.323.6,1.947.522,2.493A63.051,63.051,0,0,0,.01,9.674c-.29,13.348,5.9,21.856,15.382,30.708,14.21,13.262,27.583,17.939,46,22.28,11.022,2.6,61.481,3.817,66.608,4.025" transform="translate(51.251 65.251)" fill="none" stroke="#191919" stroke-miterlimit="10" stroke-width="1.95"/>
        <path id="路径-38" data-name="路径" d="M0,1.68c.646-1.011,2.4.13,3.6.1q4.735-.132,9.452-.507C26.917.16,40.691.68,54.573.315c42.4-1.116,96.69-.838,130.519,28.609,42.236,36.767,24.618,91.735-32.508,96.407-17.346,1.419-33.921,1.647-51-1.685-19.309-3.768-45.607-20.123-61.655-31.452" transform="translate(180.163 129.266)" fill="none" stroke="#191919" stroke-miterlimit="10" stroke-width="1.95"/>
        <path id="路径-39" data-name="路径" d="M0,7.09C8.827,8.291,19.554,4.981,26.87,0" transform="translate(324.079 235.186)" fill="none" stroke="#191919" stroke-miterlimit="10" stroke-width="1.95"/>
        <path id="路径-40" data-name="路径" d="M1.74.072c.3-.4-.242.972-.366,1.457C.991,3.024.527,4.516,0,5.966" transform="translate(372.554 210.854)" fill="none" stroke="#191919" stroke-miterlimit="10" stroke-width="1.95"/>
        <path id="路径-41" data-name="路径" d="M1.444,67.986C2,68.592.848,66.438.7,65.626a42.505,42.505,0,0,1-.552-4.913A99.463,99.463,0,0,1,.443,46.084C1.728,31.074,4.778,11.47,15.674,0" transform="translate(0.439 168.852)" fill="none" stroke="#191919" stroke-miterlimit="10" stroke-width="1.95"/>
        <path id="路径-42" data-name="路径" d="M0,18.3C.443,17.768,2.588,3.494,4.076,0" transform="translate(16.924 192.457)" fill="none" stroke="#191919" stroke-miterlimit="10" stroke-width="1.95"/>
        <path id="路径-43" data-name="路径" d="M0,3.273c.193-.3,6.134-2.074,6.653-2.227A26.153,26.153,0,0,1,30.717,6.1" transform="translate(143.032 56.575)" fill="none" stroke="#191919" stroke-miterlimit="10" stroke-width="1.95"/>
        <path id="路径-44" data-name="路径" d="M2.379,1.394A1.143,1.143,0,0,0,1.871.216,1.568,1.568,0,0,0,.655.062C-.085.3-.1,1.561.127,2.151.575,3.332,2.3,2.878,2.379,1.394Z" transform="translate(49.492 63.632)" fill="none" stroke="#191919" stroke-miterlimit="10" stroke-width="1.95"/>
        <path id="路径-45" data-name="路径" d="M.2.007C.292-.039.021.148.009.25a2.093,2.093,0,0,0,.114.873A5.687,5.687,0,0,0,1.66,3.168a54.682,54.682,0,0,0,7.1,5.726,63.441,63.441,0,0,0,9.676,5.072,81.24,81.24,0,0,0,12.73,5.1c2.179.6,7.485-.735,7.82-1.741" transform="translate(57.761 325.92)" fill="none" stroke="#191919" stroke-miterlimit="10" stroke-width="1.95"/>
        <path id="路径-46" data-name="路径" d="M34.044,0c.131.216-.4.317-.559.509-.5.594-1.009,1.184-1.49,1.795-2.288,2.9-4.467,5.917-6.465,9.025A277.573,277.573,0,0,0,5.211,49.22,80.434,80.434,0,0,0,.631,61.036C.541,61.379-.4,64.259.2,64.559" transform="translate(35.623 336.706)" fill="none" stroke="#191919" stroke-miterlimit="10" stroke-width="1.95"/>
        <path id="路径-47" data-name="路径" d="M4.688.007c-.127-.114-.8,1.261-.83,1.327A40.677,40.677,0,0,0,1.823,6.19C-.272,12.347-.273,18.039.394,24.374" transform="translate(81.776 344.051)" fill="none" stroke="#191919" stroke-miterlimit="10" stroke-width="1.95"/>
        <path id="路径-48" data-name="路径" d="M.091,0C-.264.256.518.765.735,1.145A17.367,17.367,0,0,0,3.36,4.533c2.4,2.482,6.249,5.491,9.73,6.157,1.564.3,2.08-.66,2.666-1.971.112-.251.584-1.05.391-1.34s-.985-.411-1.292-.532c-1.139-.45-2.255-.953-3.368-1.462-1.414-.647-2.852-1.19-4.32-1.7C4.9,2.9,3.005,1.5.828.629" transform="translate(69.692 336.961)" fill="#191919" stroke="#191919" stroke-miterlimit="10" stroke-width="1.95"/>
        <path id="路径-49" data-name="路径" d="M0,18.658c.127.32,2.5-.289,2.681-.33a16.192,16.192,0,0,0,7.541-3.718c2.725-2.485,4.52-6.063,5.8-9.464a37.059,37.059,0,0,0,1.1-3.56c.092-.345.118-1.085.468-1.3A5.237,5.237,0,0,1,20.32.073c2.1.124,4.225.239,6.31.526a41.835,41.835,0,0,1,4.76.977c.338.087,1.288.141,1.48.526" transform="translate(51.466 346.923)" fill="none" stroke="#191919" stroke-miterlimit="10" stroke-width="1.95"/>
        <path id="路径-50" data-name="路径" d="M11.728,15.185c.083.136-.078-.309-.112-.465-.064-.292-.126-.585-.192-.877a25.951,25.951,0,0,1-.5-2.912c-.323-2.891-.461-6.084.609-8.845.3-.765,1.037-2.364,2.134-2.045C14.93.408,15.1,2.393,15.1,3.439c-.021,3.493-2.39,6.523-3.753,9.6-.334.753-.168,2.827-.747,3.346-.414.371-2.735-.872-3.266-.929-1.994-.215-5.588.2-7.307,1.346-.131.088.309-.067.461-.106q.362-.092.728-.17,1.126-.241,2.259-.442c2.266-.4,5.3-1.16,7.563-.356,1.575.559.978,4.1,1.228,5.445a13.107,13.107,0,0,0,.365,1.516c.078.25.154.955.288.731.095-.157-.157-.892-.186-1.057a16.024,16.024,0,0,0-.971-3.64c-.134-.31-.608-1.374-1.115-1.051-.841.535-.792,2.362-.9,3.2-.257,1.981-.548,5.272-1.93,6.872-.12.139-.291-.225-.423-.276a1.2,1.2,0,0,0-.987.135c-.28.153-1.47,1.441-1.711,1.368-.025-.007.5-.867.535-.92q.523-.864,1.026-1.74.878-1.54,1.772-3.07c.027-.046.511-.949.542-.939A12.774,12.774,0,0,1,7.9,23.924c-.743,1.506-1.525,3-2.294,4.49-.055.107-.728,1.157-.622,1.263s1.285-.779,1.41-.846a9.5,9.5,0,0,1,3.8-1.215c.26-.016,1.089-.1,1.285.157.041.053-.592.111-.631.115-.44.05-.881.118-1.314.211a12.356,12.356,0,0,0-3.561,1.218,10.606,10.606,0,0,0-3.153,2.974c-.082.116-.781,1.048-.557,1.16.538.269,2.29-.937,2.8-1.147" transform="translate(39.355 350.131)" fill="none" stroke="#191919" stroke-miterlimit="10" stroke-width="1.95"/>
        <path id="路径-51" data-name="路径" d="M.007,46.35c-.1,0,.87-3.325.912-3.439A70.347,70.347,0,0,1,6.053,32.2,115.114,115.114,0,0,1,34.429,0" transform="translate(146.668 308.17)" fill="none" stroke="#191919" stroke-miterlimit="10" stroke-width="1.95"/>
        <path id="路径-52" data-name="路径" d="M0,14.989c.208.083.082-.444.17-.65A14.765,14.765,0,0,1,.9,12.924,39.849,39.849,0,0,1,3.107,9.511,80.385,80.385,0,0,1,10.921,0" transform="translate(171.515 323.481)" fill="#969696" stroke="#191919" stroke-miterlimit="10" stroke-width="1.95"/>
        <path id="路径-53" data-name="路径" d="M1.947.091C.968-.427-.617,1.4.251,2.234,1.177,3.118,2.845,1.518,2.2.458" transform="translate(29.878 129.761)" fill="none" stroke="#191919" stroke-miterlimit="10" stroke-width="1.95"/>
        <path id="路径-54" data-name="路径" d="M1.311,2.161c-.224.3-.843-.093-1.018-.254A1.181,1.181,0,0,1,.684.071c1.182-.478,2.36,1.609,1.18,2.051" transform="translate(77.419 5.637)" fill="none" stroke="#191919" stroke-miterlimit="10" stroke-width="1.95"/>
        <path id="路径-55" data-name="路径" d="M1.857,46.735c-.021-.006.355-.573.368-.6.3-.486.6-.974.868-1.479.709-1.329,1.375-2.683,2.061-4.024,2.079-4.058,4.1-8.139,6.262-12.155,4.253-7.9,8.639-15.769,13.6-23.253.7-1.059,4.285-6.37,6.168-5.007,1.044.755-.223,2.908-.609,3.685-1.667,3.363-3.843,6.528-5.757,9.755C19.2,23.132,14.24,32.955,8.726,42.48c-.554.958-2.081,4.545-3.264,5.018-.663.265-3.358-.946-3.743-.37C.7,48.662.423,51.345.064,53.141c-.016.078-.125.46-.016.526S.536,53.359.6,53.3c1.963-1.718,3.221-4.013,5.018-5.81" transform="translate(216.242 217.943)" fill="none" stroke="#191919" stroke-miterlimit="10" stroke-width="1.95"/>
        <path id="路径-56" data-name="路径" d="M.025.013c-.093-.077.1.218.161.323C.313.559.455.771.6.982A17.282,17.282,0,0,0,1.9,2.6,26.238,26.238,0,0,0,6.569,6.754" transform="translate(40.142 209.915)" fill="none" stroke="#191919" stroke-miterlimit="10" stroke-width="1.95"/>
        <path id="路径-57" data-name="路径" d="M19.708,0c0,.062-.228.316-.263.373-.208.334-.377.694-.558,1.043-.672,1.294-1.3,2.605-1.871,3.95-.931,2.2-1.957,4.317-3.05,6.443A9.832,9.832,0,0,1,12.582,14.4c-.578.535-2.042.622-2.77.785-2.141.481-8.8-.222-9.812-1.052" transform="translate(67.395 213.154)" fill="none" stroke="#191919" stroke-miterlimit="10" stroke-width="1.95"/>
        <path id="路径-58" data-name="路径" d="M0,.417C2.741.5,5.557-.027,8.339,0a27.719,27.719,0,0,1,13.45,3.575c3.834,2.169,6.451,5.435,8.594,9.218a23,23,0,0,1,1.273,2.55c.1.248.385.752.175,1.014-.259.322-.995.314-1.357.353a13.374,13.374,0,0,1-4.222-.226c-.3-.065-1.507-.173-1.582-.593-.086-.489.5-1.239.69-1.655a36.393,36.393,0,0,0,1.634-4.007c.086-.26.513-1.037.443-1.315" transform="translate(43.9 209.166)" fill="none" stroke="#191919" stroke-miterlimit="10" stroke-width="1.95"/>
        <path id="路径-59" data-name="路径" d="M2.353,0s-.374.34-.38.358c-.12.335-.23.672-.355,1.006C1.216,2.445.857,3.533.409,4.6c-.115.273-.249.54-.349.819a.448.448,0,0,0-.036.341c.106.209.515.253.712.28.683.1,1.37.129,2.048.267a3.729,3.729,0,0,0,1.939.177c.764-.273.439-1.4.272-1.972a11.5,11.5,0,0,0-.617-1.472A9.751,9.751,0,0,0,2.93.636,4.207,4.207,0,0,0,2.353,0Z" transform="translate(69.449 218.965)" fill="#191919" stroke="#191919" stroke-miterlimit="10" stroke-width="1.95"/>
        <path id="路径-60" data-name="路径" d="M39.942,0a5.524,5.524,0,0,0-.418.468c-.3.34-.623.651-.94.972-.967.975-1.9,2-2.835,3A141.01,141.01,0,0,0,23.6,19.711c-6.753,9.536-13,19.37-19.092,29.331a69.889,69.889,0,0,0-3.623,6.67c-.331.7-1.14,2.007-.808,2.83.228.564,1.3,1.1,1.816,1.389" transform="translate(14.475 209.758)" fill="none" stroke="#191919" stroke-miterlimit="10" stroke-width="1.95"/>
        <path id="路径-61" data-name="路径" d="M12.655.029c.087-.151-.121.326-.187.488a11.216,11.216,0,0,1-.5,1.041c-.542,1.01-1.071,2.027-1.615,3.036a31.835,31.835,0,0,1-6.441,8.13A20.216,20.216,0,0,0,1,15.68C-.461,17.838-.069,20.808.584,23.164c.721,2.6,3.015,4.772,2.657,7.636a7.113,7.113,0,0,1-.791,1.723" transform="translate(58.735 218.329)" fill="none" stroke="#191919" stroke-miterlimit="10" stroke-width="1.95"/>
        <path id="路径-62" data-name="路径" d="M0,16.719c.084-.2.422.09.637.108a10.026,10.026,0,0,0,1.225.009c1.391-.05,2.784-.206,4.162-.387A22.16,22.16,0,0,0,16.4,12.278a27.619,27.619,0,0,0,3.849-3.4A28.617,28.617,0,0,0,23.8,3.6,8.5,8.5,0,0,1,25.721.819C27.177-.2,29.755-.09,31.4.2c1.021.181,3.575.541,3.953,1.864" transform="translate(30.453 224.995)" fill="none" stroke="#191919" stroke-miterlimit="10" stroke-width="1.95"/>
        <path id="路径-63" data-name="路径" d="M8.266,15.388c-.2-.029.362-.173.519-.3a7.106,7.106,0,0,0,.855-.811,11.059,11.059,0,0,0,1.85-2.923,14.744,14.744,0,0,0,1.259-8.663c-.2-.974-.812-2.558-1.988-2.685C9.2-.16,8.247,2.018,7.852,3.169c-.894,2.6-.608,5.4-.169,8.06A11.54,11.54,0,0,0,8.315,14.3c.5,1.03,3.892.371,4.826.438a9.239,9.239,0,0,1,1.592.254,11.959,11.959,0,0,1-1.547-.1,22,22,0,0,0-4.095.175c-.218.033-1.253.07-1.367.327-.075.168.874.366.955.39a4.535,4.535,0,0,1,1.994,1.04,1.665,1.665,0,0,1,.435,1.793,2.3,2.3,0,0,1-.373.647c-.069.084-.3.317-.22.24a2.318,2.318,0,0,0,.568-1.655c-.256-2.5-3.624-1.34-5-.791-.211.084-1.348.663-1.562.491-.136-.11.3-.174.455-.263.249-.147.5-.294.743-.449.636-.4,2.662-1.5,2.487-2.477-.088-.5-.94-.879-1.321-1.107a14.308,14.308,0,0,0-4.651-1.672c-.246-.049-2.154-.2-2.234-.477-.058-.2,2.17.1,2.282.13,1.941.438,4.35,1.194,5.71,2.742C9.772,16.007,5.9,17.535,6.219,19.44c.006.038,1.723.823,1.895,1a6.843,6.843,0,0,1,1.722,3.821" transform="translate(16.636 234.085)" fill="none" stroke="#191919" stroke-miterlimit="10" stroke-width="1.95"/>
        <path id="路径-64" data-name="路径" d="M.05,27.269c-.159-.135.109-1.392.123-1.553.155-1.763.289-3.527.514-5.283A68.691,68.691,0,0,1,4.4,4.673C5.119,2.809,6.288.183,8.6.008c1.872-.142,3.052,1.637,3.616,3.166a13.08,13.08,0,0,1-.722,10.405,6.062,6.062,0,0,1-.753,1.154C8.49,17.374,7.2,13.187,7.06,11.438" transform="translate(161.82 11.046)" fill="none" stroke="#191919" stroke-miterlimit="10" stroke-width="1.95"/>
        <path id="路径-65" data-name="路径" d="M.028,1C-.187.738.889.18,1,.136A2.29,2.29,0,0,1,3.4.708c2.327,2.269,2.084,6.518,1.056,9.313-.368,1-.917,2.383-1.99,2.823" transform="translate(174.592 13.592)" fill="none" stroke="#191919" stroke-miterlimit="10" stroke-width="1.95"/>
        <path id="路径-66" data-name="路径" d="M0,1.174a2.494,2.494,0,0,1,.139-.6A1.471,1.471,0,0,1,1.276,0C2.3-.057,2.747,1,3,1.818c.89,2.842.281,7.521-2.473,9.243" transform="translate(180.042 17.526)" fill="none" stroke="#191919" stroke-miterlimit="10" stroke-width="1.95"/>
        <path id="路径-67" data-name="路径" d="M1.922,23.051c-.02.012.405-1.966.458-2.178.4-1.6.766-3.2,1.176-4.8q.454-1.765.9-3.532c.262-1.03.522-2.063.821-3.082.227-.772.477-1.536.747-2.294q.356-1,.742-2c.775-1.979,3.361-6.736,6.287-4.65a2.867,2.867,0,0,1,.837,2.489A25.371,25.371,0,0,1,12.63,9.7a57.916,57.916,0,0,1-4.8,10.974c-.475.883-.922,1.781-1.393,2.666-.09.17-.255.765-.43.881-.032.021-1.516-.766-1.716-.8A3.827,3.827,0,0,0,.905,25.259c-.9,1.409-1.389,3.755-.212,5.126a6.566,6.566,0,0,0,2.9,1.652" transform="translate(182.601 0.303)" fill="none" stroke="#191919" stroke-miterlimit="10" stroke-width="1.95"/>
        <path id="路径-68" data-name="路径" d="M10.876,0a4.676,4.676,0,0,1,1.4,2.125A14.722,14.722,0,0,1,13.058,8.2c-.57,6.062-5,10-9.416,13.62-1.151.943-2.307,2.57-3.642,3.237" transform="translate(179.418 22.578)" fill="none" stroke="#191919" stroke-miterlimit="10" stroke-width="1.95"/>
        <path id="路径-69" data-name="路径" d="M2.648,0c.256.208-.254.613-.317.937-.143.73-.263,1.463-.388,2.2-.494,2.9-.966,5.813-1.534,8.7-.126.639-.251,1.28-.35,1.924-.008.054-.109.485-.026.52.149.065.541-.759.582-.837.509-.974,1.009-1.957,1.477-2.952.458-.975.894-1.958,1.3-2.956C4,6.027,4.532,4.5,5.174,3" transform="translate(179.842 29.489)" fill="none" stroke="#191919" stroke-miterlimit="10" stroke-width="1.95"/>
        <path id="路径-70" data-name="路径" d="M0,7.231C1.724,4.726,3.246,1.806,5.855,0" transform="translate(174.577 33.268)" fill="none" stroke="#191919" stroke-miterlimit="10" stroke-width="1.95"/>
        <path id="路径-71" data-name="路径" d="M19.324,0,0,62.824" transform="translate(31.927 66.454)" fill="none" stroke="#191919" stroke-miterlimit="10" stroke-width="1.95"/>
        <path id="路径-72" data-name="路径" d="M0,56.832,26.828,0" transform="translate(51.251 8.211)" fill="none" stroke="#191919" stroke-miterlimit="10" stroke-width="1.95"/>
      </g>
    </g>
    <text id="他们用匠心将灵感勾勒_化作界面上的绚丽斑" data-name="他们用匠心将灵感勾勒 化作界面上的绚丽斑" transform="translate(720 551.925)" fill="#191919" font-size="16" font-family="YuGothicUI-Regular, Yu Gothic UI" letter-spacing="0.48em"><tspan x="-114.56" y="0">他</tspan><tspan y="0" font-family="MicrosoftJhengHeiUIRegular, Microsoft JhengHei UI">们</tspan><tspan y="0">用匠心将灵感勾勒</tspan><tspan y="0" font-family="SegoeUI, Segoe UI"></tspan><tspan x="-114.56" y="28">化作界面上的</tspan><tspan y="28" font-family="MicrosoftJhengHeiUIRegular, Microsoft JhengHei UI">绚丽</tspan><tspan y="28">斑</tspan><tspan y="28" font-family="MicrosoftJhengHeiUIRegular, Microsoft JhengHei UI">斓</tspan><tspan y="28" font-family="SegoeUI, Segoe UI"></tspan><tspan font-family="PingFangSC-Regular"><tspan x="0" y="56"></tspan></tspan></text>
  </g>
</svg>
