<svg xmlns="http://www.w3.org/2000/svg" xmlns:xlink="http://www.w3.org/1999/xlink" width="256" height="365" viewBox="0 0 256 365">
  <defs>
    <clipPath id="clip-path">
      <rect id="矩形_579" data-name="矩形 579" width="256" height="365" transform="translate(-4444 504)" fill="#fff" stroke="#707070" stroke-width="1"/>
    </clipPath>
  </defs>
  <g id="蒙版组_4" data-name="蒙版组 4" transform="translate(4444 -504)" clip-path="url(#clip-path)">
    <g id="组件_27_1" data-name="组件 27 – 1" transform="translate(-4444 504.153)">
      <text id="他们用匠心将灵感勾勒_化作界面上的绚丽斑" data-name="他们用匠心将灵感勾勒 化作界面上的绚丽斑" transform="translate(122 322.847)" fill="#191919" font-size="12" font-family="YuGothicUI-Regular, Yu Gothic UI" letter-spacing="0.477em"><tspan x="-85.763" y="0">他</tspan><tspan y="0" font-family="MicrosoftJhengHeiUIRegular, Microsoft JhengHei UI">们</tspan><tspan y="0">用匠心将灵感勾勒</tspan><tspan y="0" font-family="SegoeUI, Segoe UI"></tspan><tspan x="-85.763" y="19.6">化作界面上的</tspan><tspan y="19.6" font-family="MicrosoftJhengHeiUIRegular, Microsoft JhengHei UI">绚丽</tspan><tspan y="19.6">斑</tspan><tspan y="19.6" font-family="MicrosoftJhengHeiUIRegular, Microsoft JhengHei UI">斓</tspan><tspan y="19.6" font-family="SegoeUI, Segoe UI"></tspan><tspan font-family="PingFangSC-Regular"><tspan x="0" y="39.2"></tspan></tspan></text>
      <path id="矩形" d="M25.435,21.537C55.571-8.19,108.948-6.569,138.428,22.85s28.76,79.119-2.259,109.718-89.868,30.824-117.7,3.053S-4.7,51.264,25.435,21.537Z" transform="translate(44 6.847)" fill="#abd9f8" style="mix-blend-mode: hard-light;isolation: isolate"/>
      <g id="图层1" transform="translate(30 -0.153)">
        <path id="路径" d="M.014,16.814c-.089-.109.283.05.422.023a1.6,1.6,0,0,0,.647-.422c.686-.572,1.3-1.217,1.953-1.82,1.914-1.754,3.686-3.7,5.733-5.3a47.723,47.723,0,0,1,7.74-5.311c1.324-.668,2.776-.933,4.114-1.543a8.356,8.356,0,0,0,2.245-1.42.986.986,0,0,0,.325-.632c0-.032.027-.446.114-.383.31.226.5,1.133.643,1.472a17.458,17.458,0,0,1,1.24,3.555,2.541,2.541,0,0,1,.008,1.38c-.037.068-.379.049-.445.061-.466.079-.922.216-1.38.333a11.33,11.33,0,0,0-4.086,1.912,129.151,129.151,0,0,0-10.154,9.2A24.62,24.62,0,0,1,6.18,20.8c-.291.192-.661.579-1.018.632-.27.04-1-1.253-1.16-1.457A22.686,22.686,0,0,0,.014,16.814Z" transform="translate(18.216 185.284)" fill="#191919" stroke="#191919" stroke-miterlimit="10" stroke-width="0.983"/>
        <path id="路径-2" data-name="路径" d="M66.226.04c-.393-.368-4.4,1.95-4.744,2.144A114.918,114.918,0,0,0,46.555,12.241,141.44,141.44,0,0,0,31.294,26.775c-1.9,2.033-4.25,3.887-5.9,6.124A40.639,40.639,0,0,0,22.7,37.852c-1.937,3.6-3.778,7.249-5.742,10.836C11.33,58.977,5.463,69.158,0,79.538" transform="translate(29.183 84.774)" fill="none" stroke="#191919" stroke-miterlimit="10" stroke-width="0.983"/>
        <path id="路径-3" data-name="路径" d="M0,19.435c2.344-1.025,7.718-4.276,10.861-5.883C19.1,9.341,27.573,5.5,35.058,0" transform="translate(77.445 94.448)" fill="none" stroke="#191919" stroke-miterlimit="10" stroke-width="0.983"/>
        <path id="路径-4" data-name="路径" d="M24.084,0c-1.272.99-4.255,9.205-5.21,10.95C14.844,18.316,5.865,36.178,0,41.7" transform="translate(47.352 122.282)" fill="none" stroke="#191919" stroke-miterlimit="10" stroke-width="0.983"/>
        <path id="路径-5" data-name="路径" d="M11.494,0c.123.128-.343.1-.5.184a4.051,4.051,0,0,0-.8.578A13.65,13.65,0,0,0,8.266,3.04,39.132,39.132,0,0,0,3.723,11.4C.092,20.626-3.234,33.888,5.793,42.869" transform="translate(67.48 19.645)" fill="none" stroke="#191919" stroke-miterlimit="10" stroke-width="0.983"/>
        <path id="路径-6" data-name="路径" d="M.122.12s0,0,0,.005" transform="translate(79.576 19.576)" fill="none" stroke="#191919" stroke-miterlimit="10" stroke-width="0.983"/>
        <path id="路径-7" data-name="路径" d="M.055.328C.556.318,1.19-.053,1.823.006c3.094.292,6.4,2.541,8.325,4.829.241.286,2.174,2.728,2.047,3.109-.067.2-.791.4-.949.5a8.982,8.982,0,0,0-1.935,1.667,36.128,36.128,0,0,0-4.942,7.626C1.171,24.057-1.153,31.564.605,38.647A14.351,14.351,0,0,0,3.5,44.878" transform="translate(79.968 19.385)" fill="none" stroke="#191919" stroke-miterlimit="10" stroke-width="0.983"/>
        <path id="路径-8" data-name="路径" d="M0,0S11.384,11.566,16.1,23.782c5.809,15.038,6.077,32.048,6.219,36.131.067,1.914.077,7.471.193,7.523a25.875,25.875,0,0,0,3.354-.877,16.449,16.449,0,0,0,.671-2.543c.6-4.946-.166-10.388-.995-15.262a230.969,230.969,0,0,0-5.973-22.709A96.222,96.222,0,0,0,13.6,14.768c-1.165-1.492-2.125-3.146-3.3-4.638C8.645,8.018,2.293.161,0,0Z" transform="translate(126.433 46.469)" fill="#191919" stroke="#191919" stroke-miterlimit="10" stroke-width="0.983"/>
        <path id="路径-9" data-name="路径" d="M14.228,2.42c.04.07-.135-.087-.2-.139-.146-.126-.271-.276-.413-.406a5.842,5.842,0,0,0-1.3-.9A8.323,8.323,0,0,0,7.6.03C3.556.319-.258,4.035.014,8.269c.162,2.526,3,3.334,5.092,3.165a10.068,10.068,0,0,1,2.786-.175c.092.022.054.127.046.194a5.509,5.509,0,0,0,.031,1.992,3.312,3.312,0,0,0,2.966,2.428,3.965,3.965,0,0,0,2.8-.643c.343-.287.659-.952,1.047-1.146a2.97,2.97,0,0,1,.28.477,1.816,1.816,0,0,0,.747.744,5.912,5.912,0,0,0,3.481.431A4.683,4.683,0,0,0,21.52,14.66c.076-.063.943-.961,1.034-.87.292.292.018,1.829.033,2.181.056,1.277-1.339,4.108-.781,3.928a4.047,4.047,0,0,1,1.559.125c.728.192.262,1.559-.089,1.967-1.615,1.878-1.891,1.529-3.421,2.447a11.007,11.007,0,0,0-2.375,3.5c-.035.56,1.216.805,1.571.89a7.1,7.1,0,0,0,5.114-.972A15,15,0,0,0,30.3,22.32,20.666,20.666,0,0,0,32.16,16.5,15.8,15.8,0,0,0,31.3,7.3a10.867,10.867,0,0,0-8.252-6.289,21.389,21.389,0,0,0-9.066,1.212" transform="translate(108.914 13.266)" fill="#191919" stroke="#191919" stroke-miterlimit="10" stroke-width="0.983"/>
        <path id="路径-10" data-name="路径" d="M.046,10.988c-.155-.1.131-.724.167-.826A20.9,20.9,0,0,1,1.227,7.775a6.238,6.238,0,0,1,5.2-3.531c2.361-.323,4.762,1.1,6.694,2.282,1.193.732,2.571,1.741,4.054,1.527a5.055,5.055,0,0,0,2.879-2.089A16.811,16.811,0,0,1,23.845,2.1,14.01,14.01,0,0,1,41,3.965C42.217,5.216,42.525,7,43.562,8.35c.725.946,2.012,1.012,2.944,1.655,1.057.73,1.278,2.341,1.208,3.526a8.932,8.932,0,0,1-1.684,4.132c-1.656,2.587-3.865,6.217-6.995,7.176-2.871.88-4.959-.611-7.252-2.172-.861-.587-1.828-1.612-2.939-1.681-.966-.06-1.867.756-2.645,1.217-1.549.918-3.314,2.015-5.143,2.138A11.094,11.094,0,0,1,15.02,22.8a17.281,17.281,0,0,0-2.531-1.513c-1.077-.372-2.461.292-3.421-.329-.83-.537-.724-1.747-1.574-2.272a5.083,5.083,0,0,0-2.272-.559c-.325-.019-.9.121-1.182-.095s-.27-.814-.337-1.129a5.159,5.159,0,0,0-.673-1.589c-.649-1.094-1.007-2.616-1.772-3.6a4.063,4.063,0,0,0-1.211-.724Z" transform="translate(133.576 3.708)" fill="#191919" stroke="#191919" stroke-miterlimit="10" stroke-width="0.983"/>
        <path id="路径-11" data-name="路径" d="M0,0C.011-.005.058.267.063.281a1.705,1.705,0,0,0,.349.5A13.7,13.7,0,0,0,1.8,2.068a55.942,55.942,0,0,0,4.63,3.626A41.432,41.432,0,0,0,19.007,11.53a14.569,14.569,0,0,0,5.491.8,12.925,12.925,0,0,0,3.293-1.51c.746-.359,1.49-.722,2.243-1.068a3.081,3.081,0,0,0,1.036-.535c.048-.058-2.3-.6-3.05-.886C26.123,7.6,15.828,5.452,13.2,4.375,9.835,2.991,5.821,1.453,2.33.4A18.973,18.973,0,0,0,0,0Z" transform="translate(63.684 75.032)" fill="#191919" stroke="#191919" stroke-miterlimit="10" stroke-width="0.983"/>
        <path id="路径-12" data-name="路径" d="M77.01,0c.364.023,1.449,4.926-7.027,13.287-16.9,16.672-42.116,26.056-42.116,26.056S22.83,50.429,20.756,54.383C14.15,66.976,7.892,79.622,0,91.46" transform="translate(48.857 81.301)" fill="none" stroke="#191919" stroke-miterlimit="10" stroke-width="1.222"/>
        <path id="路径-13" data-name="路径" d="M37.57,0s-.488.328-.543.388c-.29.32-.592.629-.889.942-.963,1.013-1.939,2.017-2.894,3.037-2.705,2.89-5.692,6.053-9.177,8-4.469,2.5-10.093,6.08-15.22,6.428a29.651,29.651,0,0,1-6.361-.224c-.527-.1-2.284-.919-2.458-.744-.214.214.849,1.3,1.067,1.51,2.785,2.672,8.039,5.836,9.546,6.234,1.873.494,4.725,1,6.538.151,2.059-.961,2.792-2.991,3.925-4.785a45.086,45.086,0,0,1,5.481-7.123C29.491,10.8,35.418,5.889,37.056,2.127A11.83,11.83,0,0,0,37.57,0Z" transform="translate(83.322 46.435)" fill="#191919" stroke="#191919" stroke-miterlimit="10" stroke-width="0.983"/>
        <path id="路径-14" data-name="路径" d="M3.462,0c.159.3-.362.57-.524.866A30.911,30.911,0,0,0,1.557,3.852Q1.22,4.661.951,5.494C.384,7.242-.974,11,1.156,12.266c1.4.828,3.637.445,5.169.345" transform="translate(117.555 26.873)" fill="none" stroke="#191919" stroke-miterlimit="10" stroke-width="0.983"/>
        <path id="路径-15" data-name="路径" d="M.505.009c-.043-.06.122.2.134.218C.743.414.845.6.932.8a4.532,4.532,0,0,1,.391,1.727A10.345,10.345,0,0,1,1,5.108C.778,6.071-.674,7.633.379,8c.553.194,4.972-.728,5.429-1.337.223-.3.05-1.4.081-1.752a11.672,11.672,0,0,1,.87-3.536" transform="translate(120.339 39.872)" fill="none" stroke="#191919" stroke-miterlimit="10" stroke-width="0.983"/>
        <path id="路径-16" data-name="路径" d="M16.756,0S11.65,4.524,10.409,5.836c-2.466,2.607-4.772,5.343-7.2,7.978C2.188,14.916.358,16.632.03,18.178c-.361,1.7,2.6,3.992,3.6,5.067,4.105,4.405,8.232,8.723,12.212,13.255a100.418,100.418,0,0,0,7.5,7.665c.869.8,2.082,2.208,3.4,1.939.948-.193,6.777-6.856,8.832-9.482,2.074-2.649,4.148-5.272,6.381-7.79.757-.854,2.56-2.409,2.615-3.675.1-2.335-5.012-5.8-6.676-7.094C33.862,14.932,20.6,1.776,16.756,0Z" transform="translate(107.638 143.015)" fill="#191919" stroke="#191919" stroke-miterlimit="10" stroke-width="0.983"/>
        <path id="路径-17" data-name="路径" d="M1.4.175A2.091,2.091,0,0,0,.029,2.562,2.368,2.368,0,0,0,2.417,4.456C3.593,4.481,4.078,3.85,4.3,2.734,4.5,1.726,3.789-.663,1.4.175Z" transform="translate(134.365 155.244)" fill="none" stroke="#fff" stroke-miterlimit="10" stroke-width="0.983"/>
        <path id="路径-18" data-name="路径" d="M0,0C.006-.007.639.7.675.74c.479.475.944.965,1.437,1.425C3.606,3.56,5.175,4.888,6.751,6.187a124.818,124.818,0,0,1,13.93,13.723c1.649,1.855,4.808,6.165,7.006,7.491" transform="translate(118.778 147.986)" fill="none" stroke="#fff" stroke-miterlimit="10" stroke-width="0.983"/>
        <path id="路径-19" data-name="路径" d="M0,10.271a39.074,39.074,0,0,0,2.566,3.864,32.983,32.983,0,0,0,3.568-2.413c2.948-2.031,6-5.839,6.816-6.28a15.689,15.689,0,0,1,5.909-2.014c1.819-.24,3.813-.29,3.813-.29a3.439,3.439,0,0,0,.4-1.881,4.317,4.317,0,0,0-.17-1.2c-.1-.253-1.412.4-1.616.454a9.232,9.232,0,0,1-3.09.1C12.853.232,8.967,4.459,4.895,7.5,4,8.165,1.709,10.2,0,10.271Z" transform="translate(8.303 125.712)" fill="#191919" stroke="#191919" stroke-miterlimit="10" stroke-width="0.983"/>
        <path id="路径-20" data-name="路径" d="M0,0S1.293,7.647,1.461,8.36a12.666,12.666,0,0,0,.372,1.318c.136-.11,1.663-2.815,1.712-2.823.319-.053,3.281-.094,3.274-.135C6.8,6.6.911.607.535.286.4.173.195-.012,0,0Z" transform="translate(29.379 29.885)" fill="#191919" stroke="#191919" stroke-miterlimit="10" stroke-width="0.983"/>
        <path id="路径-21" data-name="路径" d="M0,0S1.293,7.647,1.461,8.36a12.666,12.666,0,0,0,.372,1.318c.136-.11,1.663-2.815,1.712-2.823.319-.053,3.282-.094,3.274-.135C6.8,6.6.911.607.535.286.4.173.195-.012,0,0Z" transform="translate(30.077 28.701)" fill="#fff" stroke="#191919" stroke-miterlimit="10" stroke-width="0.983"/>
        <g id="编组" transform="translate(139.841 123.95)">
          <path id="路径-22" data-name="路径" d="M.807,0c0-.012-.015.007-.018.01C.654.153.657.442.631.617.57,1.041.519,1.46.494,1.888.416,3.2.3,4.511.245,5.825.136,8.335,0,10.85,0,13.363a10.246,10.246,0,0,0,.751,4.76c.614,1.152,1.429.767,1.894-.285a19.588,19.588,0,0,0,1-4.906,8.8,8.8,0,0,1,.4-1.72,2.711,2.711,0,0,1,.249-.524c.011-.016.2-.239.139-.208-.585.292.385,2.042.505,2.346C6,15.49,6.894,17.244,7.318,20.165c.406,2.8-.08,5.428-.316,8.21-.059.688-.344,2.5.566,2.821,1.444.509,2.507-2.133,2.847-3.024.121-.315.232-.635.331-.957,1.656-5.4.1-9.762-.8-15.031" transform="translate(0.077 2.003)" fill="none" stroke="#191919" stroke-miterlimit="10" stroke-width="0.983"/>
          <path id="路径-23" data-name="路径" d="M2.114,0a5.492,5.492,0,0,1,.226,1.237,24.907,24.907,0,0,1,.281,2.95A26.476,26.476,0,0,1,2,10.609,9.682,9.682,0,0,1,.9,13.781a8.407,8.407,0,0,1-.9,1" transform="translate(11.046 14.005)" fill="none" stroke="#191919" stroke-miterlimit="10" stroke-width="0.983"/>
          <path id="路径-24" data-name="路径" d="M1.359,0c-.156.038.123.3.182.445a9.83,9.83,0,0,1,.34,1.008,16.227,16.227,0,0,1,.572,3.3,10.2,10.2,0,0,1-.542,4.4c-.467,1.2-1.432,2.7-1.911,3.9" transform="translate(12.967 12.595)" fill="none" stroke="#191919" stroke-miterlimit="10" stroke-width="0.983"/>
          <path id="路径-25" data-name="路径" d="M0,0C.137-.036.741.83.879,1c.9,1.12,1.792,2.245,2.661,3.387a21.247,21.247,0,0,1,4.2,10.755c.137,1.523.239,3.522-.551,4.924C7,20.4,5.824,22.051,5.58,22.342" transform="translate(9.049 0.211)" fill="none" stroke="#191919" stroke-miterlimit="10" stroke-width="0.983"/>
        </g>
        <path id="路径-26" data-name="路径" d="M24.089,0c2.139,4.112,3.808,8.6,3.9,13.279.106,5.634-1.066,10.868-2.523,16.254-.154.569-.882,4.686-1.314,4.945-.753.452-9.242-1.162-10.753-1.5C9.437,32.086.644,30.988.015,25.7c-.137-1.15.727-2.3,1.027-3.379" transform="translate(102.19 46.613)" fill="none" stroke="#191919" stroke-miterlimit="10" stroke-width="0.983"/>
        <path id="路径-27" data-name="路径" d="M0,45.862c-.046-.187.756-1.015.877-1.173.949-1.237,1.978-2.412,2.98-3.6,1.537-1.83,2.732-3.929,4.1-5.884,2.175-3.113,4.537-6.121,6.889-9.1,3.583-4.538,7.012-9.263,10.426-13.929C28.256,8.092,31.9,3.378,36.564,1.095c5.108-2.5,11.566-.169,16.539,1.57,3.163,1.106,6.2,2.538,9.329,3.744a151.659,151.659,0,0,1,15.315,6.339c2.628,1.362,5.725,3.031,8.373,4.355" transform="translate(20.292 59.941)" fill="none" stroke="#191919" stroke-miterlimit="10" stroke-width="0.983"/>
        <path id="路径-28" data-name="路径" d="M23.076.058c-.089-.376-.593,1.182-.713,1.447-.532,1.17-1.082,2.324-1.669,3.468-1.776,3.456-3.73,6.823-5.687,10.178C11.456,21.236,7.858,27.166,3.117,32.414,1.788,33.885,0,35,0,35.381" transform="translate(40.813 75.005)" fill="none" stroke="#191919" stroke-miterlimit="10" stroke-width="0.983"/>
        <path id="路径-29" data-name="路径" d="M0,0C-.077.07,1.631,2.807,1.709,2.943c1.777,3.1,3.608,6.187,5.271,9.346" transform="translate(131.366 53.686)" fill="none" stroke="#191919" stroke-miterlimit="10" stroke-width="0.983"/>
        <path id="路径-30" data-name="路径" d="M0,0C1.112.988,2.262,6.577,2.65,8.007c2.263,8.341,2.7,16.809,2.526,25.4" transform="translate(141.79 74.384)" fill="none" stroke="#191919" stroke-miterlimit="10" stroke-width="0.983"/>
        <path id="路径-31" data-name="路径" d="M0,0C-.06.143,1.464,3.775,1.587,4.152A114.89,114.89,0,0,1,4.639,16.375a162.933,162.933,0,0,1,3.049,30.3c.034,2.676-1.537,11.643-.864,13.043.454.945,4.887.97,5.788.939a28.968,28.968,0,0,0,3.522-.381c7.282-1.154,4.99-5.44,6.216-11.568" transform="translate(130.158 64.338)" fill="none" stroke="#191919" stroke-miterlimit="10" stroke-width="0.983"/>
        <path id="路径-32" data-name="路径" d="M0,2.011c.058.122.621.232.752.265a9.052,9.052,0,0,0,2.46.206C6.25,2.4,9.88,1.836,12.4,0" transform="translate(140.219 112.729)" fill="none" stroke="#191919" stroke-miterlimit="10" stroke-width="0.983"/>
        <path id="路径-33" data-name="路径" d="M2.342,0a2.244,2.244,0,0,0-.858.27A3.344,3.344,0,0,0,.117,1.991,2.176,2.176,0,0,0,2.064,4.806a2.44,2.44,0,0,0,1.029-.124C5.5,3.857,4.935.159,2.342,0Z" transform="translate(165.608 44.835)" fill="none" stroke="#191919" stroke-miterlimit="10" stroke-width="0.983"/>
        <path id="路径-34" data-name="路径" d="M.06,0C-.5,2.005,2.979,7.9,4.12,9.661" transform="translate(88.284 50.119)" fill="none" stroke="#191919" stroke-miterlimit="10" stroke-width="0.983"/>
        <path id="路径-35" data-name="路径" d="M0,0A5.658,5.658,0,0,1,.505,1.25" transform="translate(86.224 44.569)" fill="none" stroke="#191919" stroke-miterlimit="10" stroke-width="0.983"/>
        <path id="路径-36" data-name="路径" d="M.027,17.675c-.069.079.015-.211.035-.314.059-.3.126-.6.205-.9a15.262,15.262,0,0,1,.9-2.376A21.317,21.317,0,0,1,5.266,8.255C10.214,3.092,15.913.1,23.048,0,34.021-.138,40.321,3.618,47.415,10.216c5.589,5.2,9.26,9.127,11.612,14.266" transform="translate(26.338 15.407)" fill="none" stroke="#191919" stroke-miterlimit="10" stroke-width="0.983"/>
        <path id="路径-37" data-name="路径" d="M.521,0C.315.163.3.981.263,1.256A31.778,31.778,0,0,0,0,4.876C-.141,11.6,2.978,15.892,7.758,20.353c7.162,6.684,13.9,9.041,23.186,11.229,5.555,1.309,30.986,1.924,33.57,2.028" transform="translate(25.83 32.886)" fill="none" stroke="#191919" stroke-miterlimit="10" stroke-width="0.983"/>
        <path id="路径-38" data-name="路径" d="M0,.847C.325.337,1.209.912,1.814.9Q4.2.829,6.577.64C13.566.081,20.508.343,27.5.159,48.875-.4,76.237-.263,93.286,14.578c21.287,18.53,12.407,46.234-16.384,48.589-8.742.715-17.1.83-25.7-.849-9.732-1.9-22.986-10.142-31.074-15.852" transform="translate(90.802 65.15)" fill="none" stroke="#191919" stroke-miterlimit="10" stroke-width="0.983"/>
        <path id="路径-39" data-name="路径" d="M0,3.574C4.449,4.179,9.855,2.511,13.543,0" transform="translate(163.336 118.534)" fill="none" stroke="#191919" stroke-miterlimit="10" stroke-width="0.983"/>
        <path id="路径-40" data-name="路径" d="M.877.036c.152-.2-.122.49-.185.734C.5,1.524.266,2.276,0,3.007" transform="translate(187.767 106.271)" fill="none" stroke="#191919" stroke-miterlimit="10" stroke-width="0.983"/>
        <path id="路径-41" data-name="路径" d="M.728,34.265c.281.306-.3-.78-.374-1.189A21.423,21.423,0,0,1,.076,30.6a50.129,50.129,0,0,1,.147-7.373C.871,15.661,2.408,5.781,7.9,0" transform="translate(0.221 85.101)" fill="none" stroke="#191919" stroke-miterlimit="10" stroke-width="0.983"/>
        <path id="路径-42" data-name="路径" d="M0,9.224C.223,8.955,1.3,1.761,2.054,0" transform="translate(8.53 96.998)" fill="none" stroke="#191919" stroke-miterlimit="10" stroke-width="0.983"/>
        <path id="路径-43" data-name="路径" d="M0,1.65A34.506,34.506,0,0,1,3.353.527,13.181,13.181,0,0,1,15.482,3.075" transform="translate(72.088 28.514)" fill="none" stroke="#191919" stroke-miterlimit="10" stroke-width="0.983"/>
        <path id="路径-44" data-name="路径" d="M1.2.7A.576.576,0,0,0,.943.109.79.79,0,0,0,.33.031C-.043.15-.049.787.064,1.084.29,1.679,1.16,1.451,1.2.7Z" transform="translate(24.944 32.07)" fill="none" stroke="#191919" stroke-miterlimit="10" stroke-width="0.983"/>
        <path id="路径-45" data-name="路径" d="M.1,0C.147-.02.01.075,0,.126a1.055,1.055,0,0,0,.057.44A2.866,2.866,0,0,0,.837,1.6,27.56,27.56,0,0,0,4.416,4.483,31.974,31.974,0,0,0,9.292,7.039a40.945,40.945,0,0,0,6.416,2.572c1.1.3,3.772-.37,3.941-.878" transform="translate(29.112 164.264)" fill="none" stroke="#191919" stroke-miterlimit="10" stroke-width="0.983"/>
        <path id="路径-46" data-name="路径" d="M17.158,0c.066.109-.2.16-.282.257-.253.3-.509.6-.751.9-1.153,1.462-2.251,2.982-3.258,4.549a139.9,139.9,0,0,0-10.241,19.1A40.539,40.539,0,0,0,.318,30.762C.273,30.935-.2,32.386.1,32.538" transform="translate(17.954 169.7)" fill="none" stroke="#191919" stroke-miterlimit="10" stroke-width="0.983"/>
        <path id="路径-47" data-name="路径" d="M2.363,0c-.064-.058-.4.636-.418.669A20.5,20.5,0,0,0,.919,3.12,20.463,20.463,0,0,0,.2,12.284" transform="translate(41.215 173.402)" fill="none" stroke="#191919" stroke-miterlimit="10" stroke-width="0.983"/>
        <path id="路径-48" data-name="路径" d="M.046,0C-.133.129.261.386.371.577A8.753,8.753,0,0,0,1.693,2.284a10.743,10.743,0,0,0,4.9,3.1c.788.151,1.048-.332,1.344-.993.056-.127.294-.529.2-.675s-.5-.207-.651-.268c-.574-.227-1.136-.48-1.7-.737-.712-.326-1.437-.6-2.177-.856-1.141-.4-2.1-1.1-3.2-1.541" transform="translate(35.125 169.829)" fill="#191919" stroke="#191919" stroke-miterlimit="10" stroke-width="0.983"/>
        <path id="路径-49" data-name="路径" d="M0,9.4c.064.161,1.259-.146,1.351-.166a8.161,8.161,0,0,0,3.8-1.874,12.264,12.264,0,0,0,2.923-4.77A18.678,18.678,0,0,0,8.631.8c.046-.174.059-.547.236-.654A2.64,2.64,0,0,1,10.241.037C11.3.1,12.371.157,13.422.3a21.085,21.085,0,0,1,2.4.493c.17.044.649.071.746.265" transform="translate(25.939 174.849)" fill="none" stroke="#191919" stroke-miterlimit="10" stroke-width="0.983"/>
        <path id="路径-50" data-name="路径" d="M5.911,7.653c.042.069-.039-.156-.056-.234-.032-.147-.063-.295-.1-.442a13.079,13.079,0,0,1-.25-1.468,9.577,9.577,0,0,1,.307-4.458C5.964.666,6.337-.14,6.89.021c.635.185.722,1.185.719,1.712C7.6,3.494,6.4,5.021,5.717,6.569c-.168.38-.085,1.425-.376,1.686-.209.187-1.378-.44-1.646-.468a6.81,6.81,0,0,0-3.683.678c-.066.044.155-.034.232-.053q.183-.046.367-.086Q1.179,8.205,1.75,8.1c1.142-.2,2.67-.585,3.812-.179.794.282.493,2.068.619,2.744a6.606,6.606,0,0,0,.184.764c.039.126.077.481.145.368.048-.079-.079-.449-.094-.533a8.076,8.076,0,0,0-.489-1.835c-.068-.156-.306-.693-.562-.53-.424.27-.4,1.191-.454,1.612-.129,1-.276,2.657-.973,3.463-.061.07-.147-.113-.213-.139a.606.606,0,0,0-.5.068c-.141.077-.741.726-.863.69-.013,0,.254-.437.27-.464q.264-.436.517-.877.443-.776.893-1.547c.013-.023.257-.478.273-.473a6.438,6.438,0,0,1-.334.822c-.374.759-.768,1.511-1.156,2.263-.028.054-.367.583-.313.636s.648-.392.711-.426a4.786,4.786,0,0,1,1.916-.612c.131-.008.549-.05.648.079.021.027-.3.056-.318.058-.222.025-.444.06-.662.107a6.227,6.227,0,0,0-1.795.614,5.346,5.346,0,0,0-1.589,1.5c-.042.058-.394.528-.281.585.271.136,1.154-.472,1.413-.578" transform="translate(19.835 176.466)" fill="none" stroke="#191919" stroke-miterlimit="10" stroke-width="0.983"/>
        <path id="路径-51" data-name="路径" d="M0,23.36c-.051,0,.439-1.676.46-1.733a35.455,35.455,0,0,1,2.587-5.4A58.018,58.018,0,0,1,17.352,0" transform="translate(73.921 155.318)" fill="none" stroke="#191919" stroke-miterlimit="10" stroke-width="0.983"/>
        <path id="路径-52" data-name="路径" d="M0,7.554c.1.042.042-.224.086-.327a7.442,7.442,0,0,1,.368-.713,20.084,20.084,0,0,1,1.113-1.72A40.514,40.514,0,0,1,5.5,0" transform="translate(86.444 163.034)" fill="#969696" stroke="#191919" stroke-miterlimit="10" stroke-width="0.983"/>
        <path id="路径-53" data-name="路径" d="M.981.046C.488-.215-.311.708.127,1.126c.466.445,1.307-.361.982-.895" transform="translate(15.059 65.399)" fill="none" stroke="#191919" stroke-miterlimit="10" stroke-width="0.983"/>
        <path id="路径-54" data-name="路径" d="M.661,1.089C.548,1.24.236,1.042.148.961a.6.6,0,0,1,.2-.925c.6-.241,1.19.811.595,1.034" transform="translate(39.019 2.841)" fill="none" stroke="#191919" stroke-miterlimit="10" stroke-width="0.983"/>
        <path id="路径-55" data-name="路径" d="M.936,23.555c-.011,0,.179-.289.186-.3.153-.245.3-.491.438-.745.357-.67.693-1.352,1.039-2.028,1.048-2.045,2.067-4.1,3.156-6.126,2.144-3.983,4.354-7.948,6.853-11.72.354-.534,2.16-3.21,3.109-2.524.526.381-.112,1.466-.307,1.857-.84,1.695-1.937,3.29-2.9,4.917C9.677,11.658,7.177,16.609,4.4,21.41c-.279.483-1.049,2.291-1.645,2.529-.334.134-1.693-.477-1.886-.186a9.286,9.286,0,0,0-.834,3.03c-.008.039-.063.232-.008.265s.246-.155.278-.184c.989-.866,1.624-2.023,2.529-2.928" transform="translate(108.986 109.843)" fill="none" stroke="#191919" stroke-miterlimit="10" stroke-width="0.983"/>
        <path id="路径-56" data-name="路径" d="M.012.006c-.047-.039.051.11.081.163C.158.282.229.388.3.495a8.71,8.71,0,0,0,.653.814A13.224,13.224,0,0,0,3.311,3.4" transform="translate(20.232 105.797)" fill="none" stroke="#191919" stroke-miterlimit="10" stroke-width="0.983"/>
        <path id="路径-57" data-name="路径" d="M9.933,0c0,.031-.115.159-.133.188-.1.168-.19.35-.281.526-.339.652-.657,1.313-.943,1.991C8.107,3.814,7.59,4.88,7.039,5.952a4.955,4.955,0,0,1-.7,1.3,3.533,3.533,0,0,1-1.4.4C3.866,7.894.508,7.54,0,7.121" transform="translate(33.967 107.43)" fill="none" stroke="#191919" stroke-miterlimit="10" stroke-width="0.983"/>
        <path id="路径-58" data-name="路径" d="M0,.21C1.382.253,2.8-.014,4.2,0a13.97,13.97,0,0,1,6.779,1.8,11.638,11.638,0,0,1,4.331,4.646,11.594,11.594,0,0,1,.642,1.285c.052.125.194.379.088.511-.13.162-.5.158-.684.178a6.741,6.741,0,0,1-2.128-.114c-.152-.033-.76-.087-.8-.3-.044-.247.25-.625.348-.834a18.343,18.343,0,0,0,.824-2.02c.043-.131.259-.523.223-.663" transform="translate(22.125 105.42)" fill="none" stroke="#191919" stroke-miterlimit="10" stroke-width="0.983"/>
        <path id="路径-59" data-name="路径" d="M1.186,0S1,.171.994.18C.934.349.878.519.816.687c-.2.545-.384,1.093-.61,1.629-.058.138-.125.272-.176.413A.226.226,0,0,0,.012,2.9c.053.105.26.127.359.141.344.048.691.065,1.032.135a1.879,1.879,0,0,0,.977.089c.385-.138.221-.707.137-.994a5.794,5.794,0,0,0-.311-.742,4.914,4.914,0,0,0-.73-1.21A2.12,2.12,0,0,0,1.186,0Z" transform="translate(35.002 110.358)" fill="#191919" stroke="#191919" stroke-miterlimit="10" stroke-width="0.983"/>
        <path id="路径-60" data-name="路径" d="M20.131,0a2.784,2.784,0,0,0-.21.236c-.149.171-.314.328-.474.49-.487.492-.955,1.008-1.429,1.513a71.069,71.069,0,0,0-6.123,7.7C8.492,14.74,5.343,19.7,2.273,24.717A35.224,35.224,0,0,0,.447,28.079C.28,28.433-.128,29.09.04,29.505c.115.284.653.553.915.7" transform="translate(7.295 105.718)" fill="none" stroke="#191919" stroke-miterlimit="10" stroke-width="0.983"/>
        <path id="路径-61" data-name="路径" d="M6.378.015c.044-.076-.061.165-.094.246a5.653,5.653,0,0,1-.252.525c-.273.509-.54,1.021-.814,1.53a16.045,16.045,0,0,1-3.246,4.1A10.189,10.189,0,0,0,.506,7.9a4.639,4.639,0,0,0-.212,3.772c.363,1.31,1.52,2.4,1.339,3.848a3.585,3.585,0,0,1-.4.868" transform="translate(29.603 110.038)" fill="none" stroke="#191919" stroke-miterlimit="10" stroke-width="0.983"/>
        <path id="路径-62" data-name="路径" d="M0,8.427c.042-.1.213.045.321.055a5.053,5.053,0,0,0,.618,0c.7-.025,1.4-.1,2.1-.2a11.169,11.169,0,0,0,5.23-2.1,13.92,13.92,0,0,0,1.94-1.715,14.423,14.423,0,0,0,1.786-2.66,4.285,4.285,0,0,1,.971-1.4A4.279,4.279,0,0,1,15.826.1c.515.091,1.8.273,1.992.939" transform="translate(15.348 113.398)" fill="none" stroke="#191919" stroke-miterlimit="10" stroke-width="0.983"/>
        <path id="路径-63" data-name="路径" d="M4.166,7.756c-.1-.014.183-.087.261-.149A3.581,3.581,0,0,0,4.858,7.2,5.574,5.574,0,0,0,5.79,5.725a7.431,7.431,0,0,0,.635-4.366c-.1-.491-.41-1.289-1-1.353C4.636-.081,4.157,1.017,3.957,1.6a8.31,8.31,0,0,0-.085,4.062,5.816,5.816,0,0,0,.319,1.548c.252.519,1.962.187,2.432.221a4.656,4.656,0,0,1,.8.128,6.028,6.028,0,0,1-.78-.048A11.09,11.09,0,0,0,4.582,7.6c-.11.017-.631.035-.689.165-.038.085.441.184.481.2a2.286,2.286,0,0,1,1,.524.839.839,0,0,1,.219.9,1.161,1.161,0,0,1-.188.326c-.035.042-.15.16-.111.121A1.168,1.168,0,0,0,5.585,9c-.129-1.26-1.827-.675-2.519-.4-.106.043-.679.334-.787.248-.069-.055.153-.088.229-.133.125-.074.251-.148.374-.226.321-.2,1.341-.755,1.254-1.248-.044-.252-.474-.443-.666-.558A7.211,7.211,0,0,0,1.126,5.84C1,5.815.041,5.741,0,5.6c-.029-.1,1.094.053,1.15.066A5.5,5.5,0,0,1,4.028,7.047c.9,1.02-1.054,1.791-.894,2.751,0,.019.868.415.955.5a3.449,3.449,0,0,1,.868,1.926" transform="translate(8.385 117.979)" fill="none" stroke="#191919" stroke-miterlimit="10" stroke-width="0.983"/>
        <path id="路径-64" data-name="路径" d="M.025,13.743c-.08-.068.055-.7.062-.783.078-.888.146-1.778.259-2.663A34.62,34.62,0,0,1,2.22,2.355C2.58,1.416,3.169.092,4.334,0c.944-.072,1.538.825,1.823,1.6a6.592,6.592,0,0,1-.364,5.244,3.055,3.055,0,0,1-.379.581c-1.134,1.331-1.785-.779-1.855-1.66" transform="translate(81.557 5.567)" fill="none" stroke="#191919" stroke-miterlimit="10" stroke-width="0.983"/>
        <path id="路径-65" data-name="路径" d="M.014.5C-.094.372.448.091.5.069a1.154,1.154,0,0,1,1.21.288C2.887,1.5,2.765,3.642,2.247,5.051c-.185.5-.462,1.2-1,1.423" transform="translate(87.994 6.85)" fill="none" stroke="#191919" stroke-miterlimit="10" stroke-width="0.983"/>
        <path id="路径-66" data-name="路径" d="M0,.592a1.257,1.257,0,0,1,.07-.3A.741.741,0,0,1,.643,0c.514-.03.741.5.871.915.448,1.432.142,3.79-1.247,4.658" transform="translate(90.741 8.833)" fill="none" stroke="#191919" stroke-miterlimit="10" stroke-width="0.983"/>
        <path id="路径-67" data-name="路径" d="M.969,11.618c-.01.006.2-.991.231-1.1.2-.806.386-1.615.593-2.42q.229-.89.455-1.78c.132-.519.263-1.04.414-1.553.114-.389.241-.774.376-1.156Q3.217,3.1,3.411,2.6c.39-1,1.694-3.4,3.168-2.344A1.445,1.445,0,0,1,7,1.516a12.787,12.787,0,0,1-.636,3.373,29.19,29.19,0,0,1-2.418,5.531c-.24.445-.465.9-.7,1.344-.045.086-.129.386-.217.444-.016.011-.764-.386-.865-.4a1.929,1.929,0,0,0-1.707.924,2.333,2.333,0,0,0-.107,2.584,3.309,3.309,0,0,0,1.463.832" transform="translate(92.031 0.153)" fill="none" stroke="#191919" stroke-miterlimit="10" stroke-width="0.983"/>
        <path id="路径-68" data-name="路径" d="M5.481,0a2.357,2.357,0,0,1,.708,1.071,7.42,7.42,0,0,1,.392,3.064C6.294,7.19,4.063,9.176,1.836,11A12.181,12.181,0,0,1,0,12.631" transform="translate(90.427 11.379)" fill="none" stroke="#191919" stroke-miterlimit="10" stroke-width="0.983"/>
        <path id="路径-69" data-name="路径" d="M1.335,0c.129.1-.128.309-.16.472C1.1.84,1.042,1.21.979,1.579.73,3.043.492,4.509.206,5.966c-.064.322-.127.645-.177.97,0,.027-.055.244-.013.262.075.033.273-.382.293-.422.257-.491.509-.986.744-1.488S1.5,4.3,1.708,3.8c.308-.761.576-1.533.9-2.288" transform="translate(90.64 14.862)" fill="none" stroke="#191919" stroke-miterlimit="10" stroke-width="0.983"/>
        <path id="路径-70" data-name="路径" d="M0,3.644A13.007,13.007,0,0,1,2.951,0" transform="translate(87.987 16.767)" fill="none" stroke="#191919" stroke-miterlimit="10" stroke-width="0.983"/>
        <path id="路径-71" data-name="路径" d="M9.739,0,0,31.664" transform="translate(16.091 33.493)" fill="none" stroke="#191919" stroke-miterlimit="10" stroke-width="0.983"/>
        <path id="路径-72" data-name="路径" d="M0,28.643,13.521,0" transform="translate(25.831 4.139)" fill="none" stroke="#191919" stroke-miterlimit="10" stroke-width="0.983"/>
      </g>
      <text id="DESIGN" transform="translate(0 238.847)" fill="rgba(0,0,0,0.85)" font-size="23.04" font-family="SegoeUI, Segoe UI" letter-spacing="1.25em"><tspan x="0" y="25">DESIGN</tspan></text>
    </g>
  </g>
</svg>
